<svg xmlns="http://www.w3.org/2000/svg" aria-hidden="true" style="position:absolute;width:0;height:0;overflow:hidden">
	<defs>

		<!-- ======<<< HEADER + LOGO >>>======= -->

		<symbol id="icon-logo" viewBox="0 0 36 40">
			<g clip-path="url(#clip0_14002_3811)">
				<path
					d="M35.6376 22.0674V28.007C35.6376 28.0755 35.6363 28.144 35.6322 28.2124C35.6309 28.2258 35.6309 28.2406 35.6295 28.254C35.6269 28.2943 35.6242 28.3346 35.6201 28.3762C35.6161 28.4164 35.6121 28.4567 35.6067 28.497C35.6027 28.5359 35.596 28.5748 35.5906 28.6124C35.5812 28.6701 35.5718 28.7265 35.5597 28.7842C35.553 28.8205 35.545 28.8554 35.5369 28.8916C35.5289 28.9225 35.5208 28.9547 35.5128 28.9869C35.5061 29.0164 35.498 29.0446 35.4886 29.0742C35.4524 29.2044 35.4081 29.3332 35.3571 29.4594C35.3463 29.4862 35.3356 29.5144 35.3235 29.5413C35.2926 29.6151 35.2591 29.6876 35.2228 29.7587C35.2054 29.795 35.1866 29.8299 35.1678 29.8648L35.1665 29.8634L28.447 26.1238L17.9235 20.2661L25.8376 16.6232L35.4953 21.9896L35.6376 22.0674Z"
					fill="url(#paint0_linear_14002_3811)" />
				<path
					d="M35.5195 10.9829L33.4712 12.5614L31.6578 15.4124L14.4162 5.81513L20.9678 1.21379L24.9276 3.50104H24.9289L32.1853 7.6903L33.6873 8.55741C34.6121 9.09164 35.2645 9.97218 35.5195 10.9829Z"
					fill="url(#paint1_linear_14002_3811)" />
				<path
					d="M24.9275 3.50101L0 17.7815V11.9373C0 10.5426 0.743624 9.25403 1.95034 8.55738L15.8685 0.522483C17.0752 -0.174161 18.5624 -0.174161 19.7705 0.522483L24.9275 3.50101Z"
					fill="#0265DC" />
				<path
					d="M35.6376 11.9373V13.9655L3.43758 32.246L1.95034 31.3869C0.743624 30.689 0 29.4017 0 28.0071V25.9829L32.1852 7.69029L33.6872 8.55741C34.894 9.25405 35.6376 10.5426 35.6376 11.9373Z"
					fill="#0265DC" />
				<path
					d="M35.6376 21.9064V28.007C35.6376 28.0755 35.6363 28.1439 35.6323 28.2124C35.6309 28.2258 35.6309 28.2406 35.6296 28.254C35.6269 28.2943 35.6242 28.3345 35.6202 28.3762C35.6161 28.4164 35.6121 28.4567 35.6068 28.497C35.6027 28.5359 35.596 28.5748 35.5906 28.6124C35.5812 28.6701 35.5719 28.7265 35.5598 28.7842C35.5531 28.8205 35.545 28.8554 35.537 28.8916C35.5289 28.9225 35.5208 28.9547 35.5128 28.9869C35.5061 29.0164 35.498 29.0446 35.4886 29.0741C35.4524 29.2043 35.4081 29.3332 35.3571 29.4594C35.3463 29.4862 35.3356 29.5144 35.3235 29.5413C35.2927 29.6151 35.2591 29.6876 35.2229 29.7587C35.2054 29.7949 35.1866 29.8298 35.1678 29.8647C35.1463 29.9037 35.1249 29.9426 35.1021 29.9802C35.0806 30.0191 35.0564 30.0567 35.0336 30.0943C34.9853 30.1681 34.9356 30.2419 34.8833 30.3131C34.8296 30.3856 34.7745 30.4553 34.7182 30.5225C34.6886 30.5574 34.6591 30.5909 34.6296 30.6231C34.6 30.6567 34.5692 30.6889 34.5383 30.7211C34.4765 30.7856 34.4121 30.8486 34.345 30.9077C34.3195 30.9319 34.2927 30.9547 34.2658 30.9775C34.2497 30.9909 34.2336 31.0043 34.2175 31.0178C34.1853 31.046 34.1517 31.0728 34.1168 31.0983C34.0833 31.1251 34.0497 31.1507 34.0135 31.1748C33.9463 31.2245 33.8766 31.2715 33.8054 31.3158C33.7665 31.3399 33.7276 31.3641 33.6873 31.3869L19.7705 39.4218C18.5625 40.1184 17.0752 40.1184 15.8685 39.4218L10.7786 36.4835L28.447 26.1238L35.4953 21.9896L35.6376 21.9064Z"
					fill="#0265DC" />
				<path
					d="M6.99866 5.64331V34.301L3.43758 32.246L1.95034 31.3869C0.743624 30.6889 0 29.4017 0 28.0071V11.9373C0 10.5426 0.743624 9.25405 1.95034 8.5574L6.99866 5.64331Z"
					fill="#0265DC" />
			</g>
			<defs>
				<linearGradient id="paint0_linear_14002_3811" x1="34.5638" y1="26.4433" x2="20.2685" y2="16.6446"
					gradientUnits="userSpaceOnUse">
					<stop stop-color="#0265DC" />
					<stop offset="1" stop-color="#0265DC" stop-opacity="0" />
				</linearGradient>
				<linearGradient id="paint1_linear_14002_3811" x1="32.2148" y1="12.8863" x2="19.2618" y2="4.49701"
					gradientUnits="userSpaceOnUse">
					<stop stop-color="#0265DC" />
					<stop offset="1" stop-color="#0265DC" stop-opacity="0" />
				</linearGradient>
				<clipPath id="clip0_14002_3811">
					<rect width="36" height="40" fill="white" />
				</clipPath>
			</defs>
		</symbol>

		<symbol id="icon-logo-text-white" viewBox="0 0 135 21">

			<path
				d="M18.0719 15.528C18.0719 17.2346 17.5386 18.5253 16.4719 19.4C15.4266 20.2746 13.5706 20.712 10.9039 20.712H0.919922V0.455969H10.5839C12.3546 0.455969 13.7306 0.647969 14.7119 1.03197C15.7146 1.39463 16.4186 1.93863 16.8239 2.66397C17.2293 3.3893 17.4319 4.29597 17.4319 5.38397C17.4319 6.8773 17.0693 8.03997 16.3439 8.87197C15.6399 9.68264 14.3066 10.1733 12.3439 10.344V10.44C13.7946 10.5466 14.9359 10.792 15.7679 11.176C16.5999 11.5386 17.1866 12.072 17.5279 12.776C17.8906 13.48 18.0719 14.3973 18.0719 15.528ZM9.17592 4.48797H6.03992V8.45597H9.17592C10.2213 8.45597 10.9786 8.32797 11.4479 8.07197C11.9173 7.79464 12.1519 7.2613 12.1519 6.47197C12.1519 5.70397 11.9173 5.1813 11.4479 4.90397C10.9786 4.62664 10.2213 4.48797 9.17592 4.48797ZM9.81592 12.648H6.03992V16.712H9.81592C10.8613 16.712 11.6186 16.5733 12.0879 16.296C12.5573 15.9973 12.7919 15.4533 12.7919 14.664C12.7919 13.8533 12.5573 13.32 12.0879 13.064C11.6186 12.7866 10.8613 12.648 9.81592 12.648Z"
				fill="#ffffff" />
			<path d="M26.0712 20.712H20.9512V0.455969H26.0712V20.712Z" fill="#ffffff" />
			<path
				d="M43.0399 0.455969H48.1599V20.712H43.0719L37.3119 12.136C36.8639 11.4533 36.4906 10.8773 36.1919 10.408C35.8933 9.93864 35.6159 9.4693 35.3599 8.99997C35.1039 8.53064 34.8159 7.97597 34.4959 7.33597L34.3999 7.46397C34.6986 8.48797 34.8799 9.44797 34.9439 10.344C35.0079 11.2186 35.0399 12.072 35.0399 12.904V20.712H29.9199V0.455969H35.0079L40.7679 9.03197C41.2159 9.6933 41.5893 10.2693 41.8879 10.76C42.1866 11.2293 42.4639 11.6986 42.7199 12.168C42.9759 12.6373 43.2639 13.192 43.5839 13.832L43.6799 13.704C43.4666 12.808 43.3066 11.944 43.1999 11.112C43.0933 10.2586 43.0399 9.41597 43.0399 8.58397V0.455969Z"
				fill="#ffffff" />
			<path
				d="M70.5737 20.616V20.712H65.1337C64.9843 20.2 64.803 19.6133 64.5897 18.952C64.3977 18.2906 64.1843 17.5866 63.9497 16.84H57.0377C56.611 18.3333 56.2163 19.624 55.8537 20.712H50.4137V20.648L56.9737 0.455969H64.0137L70.5737 20.616ZM60.4297 4.10397C60.2163 5.19197 59.907 6.51464 59.5017 8.07197C59.0963 9.6293 58.6697 11.2186 58.2217 12.84H62.7977C62.3283 11.2186 61.891 9.6293 61.4857 8.07197C61.0803 6.51464 60.771 5.19197 60.5577 4.10397H60.4297Z"
				fill="#ffffff" />
			<path
				d="M89.9782 15.528C89.9782 17.2346 89.4448 18.5253 88.3782 19.4C87.3328 20.2746 85.4768 20.712 82.8102 20.712H72.8262V0.455969H82.4902C84.2608 0.455969 85.6368 0.647969 86.6182 1.03197C87.6208 1.39463 88.3248 1.93863 88.7302 2.66397C89.1355 3.3893 89.3382 4.29597 89.3382 5.38397C89.3382 6.8773 88.9755 8.03997 88.2502 8.87197C87.5462 9.68264 86.2128 10.1733 84.2502 10.344V10.44C85.7008 10.5466 86.8422 10.792 87.6742 11.176C88.5062 11.5386 89.0928 12.072 89.4342 12.776C89.7968 13.48 89.9782 14.3973 89.9782 15.528ZM81.0822 4.48797H77.9462V8.45597H81.0822C82.1275 8.45597 82.8848 8.32797 83.3542 8.07197C83.8235 7.79464 84.0582 7.2613 84.0582 6.47197C84.0582 5.70397 83.8235 5.1813 83.3542 4.90397C82.8848 4.62664 82.1275 4.48797 81.0822 4.48797ZM81.7222 12.648H77.9462V16.712H81.7222C82.7675 16.712 83.5248 16.5733 83.9942 16.296C84.4635 15.9973 84.6982 15.4533 84.6982 14.664C84.6982 13.8533 84.4635 13.32 83.9942 13.064C83.5248 12.7866 82.7675 12.648 81.7222 12.648Z"
				fill="#ffffff" />
			<path
				d="M92.2174 10.568C92.2174 7.98664 92.5054 5.93864 93.0814 4.42397C93.6788 2.9093 94.6921 1.8213 96.1214 1.15997C97.5721 0.498636 99.5881 0.167969 102.169 0.167969C104.111 0.167969 105.721 0.349302 107.001 0.711969C108.281 1.07464 109.295 1.6613 110.041 2.47197C110.788 3.28264 111.311 4.35997 111.609 5.70397C111.929 7.02664 112.089 8.64797 112.089 10.568C112.089 12.5093 111.929 14.152 111.609 15.496C111.311 16.8186 110.788 17.8853 110.041 18.696C109.295 19.5066 108.281 20.0933 107.001 20.456C105.721 20.8186 104.111 21 102.169 21C100.228 21 98.6174 20.8186 97.3374 20.456C96.0574 20.0933 95.0441 19.5066 94.2974 18.696C93.5508 17.8853 93.0174 16.8186 92.6974 15.496C92.3774 14.152 92.2174 12.5093 92.2174 10.568ZM102.169 16.52C103.535 16.52 104.559 16.3493 105.241 16.008C105.924 15.6666 106.383 15.0693 106.617 14.216C106.852 13.3413 106.969 12.1253 106.969 10.568C106.969 9.03197 106.852 7.8373 106.617 6.98397C106.383 6.13064 105.924 5.5333 105.241 5.19197C104.559 4.8293 103.535 4.64797 102.169 4.64797C100.825 4.64797 99.8014 4.8293 99.0974 5.19197C98.4147 5.5333 97.9454 6.13064 97.6894 6.98397C97.4548 7.8373 97.3374 9.03197 97.3374 10.568C97.3374 12.1253 97.4548 13.3413 97.6894 14.216C97.9454 15.0693 98.4147 15.6666 99.0974 16.008C99.8014 16.3493 100.825 16.52 102.169 16.52Z"
				fill="#ffffff" />
			<path
				d="M128.351 10.376L134.271 20.712H127.871L124.191 13.544H124.095L120.415 20.712H114.015L119.935 10.376V10.216L114.399 0.455969H120.703L124.095 7.49597H124.191L127.583 0.455969H133.887L128.351 10.216V10.376Z"
				fill="#ffffff" />
		</symbol>

		<symbol id="icon-logo-text-blue" viewBox="0 0 135 21">
			<path
				d="M18.072 15.9279C18.072 17.6345 17.5387 18.9252 16.472 19.7999C15.4267 20.6745 13.5707 21.1119 10.904 21.1119H0.919998V0.855871H10.584C12.3547 0.855871 13.7307 1.04787 14.712 1.43187C15.7147 1.79454 16.4187 2.33854 16.824 3.06387C17.2293 3.7892 17.432 4.69587 17.432 5.78387C17.432 7.2772 17.0693 8.43987 16.344 9.27187C15.64 10.0825 14.3067 10.5732 12.344 10.7439V10.8399C13.7947 10.9465 14.936 11.1919 15.768 11.5759C16.6 11.9385 17.1867 12.4719 17.528 13.1759C17.8907 13.8799 18.072 14.7972 18.072 15.9279ZM9.176 4.88787H6.04V8.85587H9.176C10.2213 8.85587 10.9787 8.72787 11.448 8.47187C11.9173 8.19454 12.152 7.6612 12.152 6.87187C12.152 6.10387 11.9173 5.5812 11.448 5.30387C10.9787 5.02654 10.2213 4.88787 9.176 4.88787ZM9.816 13.0479H6.04V17.1119H9.816C10.8613 17.1119 11.6187 16.9732 12.088 16.6959C12.5573 16.3972 12.792 15.8532 12.792 15.0639C12.792 14.2532 12.5573 13.7199 12.088 13.4639C11.6187 13.1865 10.8613 13.0479 9.816 13.0479Z"
				fill="#0265DC" />
			<path d="M26.0712 21.1119H20.9512V0.855871H26.0712V21.1119Z" fill="#0265DC" />
			<path
				d="M43.04 0.855871H48.16V21.1119H43.072L37.312 12.5359C36.864 11.8532 36.4907 11.2772 36.192 10.8079C35.8933 10.3385 35.616 9.8692 35.36 9.39987C35.104 8.93054 34.816 8.37587 34.496 7.73587L34.4 7.86387C34.6987 8.88787 34.88 9.84787 34.944 10.7439C35.008 11.6185 35.04 12.4719 35.04 13.3039V21.1119H29.92V0.855871H35.008L40.768 9.43187C41.216 10.0932 41.5893 10.6692 41.888 11.1599C42.1867 11.6292 42.464 12.0985 42.72 12.5679C42.976 13.0372 43.264 13.5919 43.584 14.2319L43.68 14.1039C43.4667 13.2079 43.3067 12.3439 43.2 11.5119C43.0933 10.6585 43.04 9.81587 43.04 8.98387V0.855871Z"
				fill="#0265DC" />
			<path
				d="M70.5737 21.0159V21.1119H65.1338C64.9844 20.5999 64.8031 20.0132 64.5897 19.3519C64.3978 18.6905 64.1844 17.9865 63.9497 17.2399H57.0378C56.6111 18.7332 56.2164 20.0239 55.8537 21.1119H50.4137V21.0479L56.9737 0.855871H64.0137L70.5737 21.0159ZM60.4297 4.50387C60.2164 5.59187 59.9071 6.91454 59.5017 8.47187C59.0964 10.0292 58.6697 11.6185 58.2217 13.2399H62.7977C62.3284 11.6185 61.8911 10.0292 61.4857 8.47187C61.0804 6.91454 60.7711 5.59187 60.5577 4.50387H60.4297Z"
				fill="#0265DC" />
			<path
				d="M89.9782 15.9279C89.9782 17.6345 89.4449 18.9252 88.3783 19.7999C87.3329 20.6745 85.4769 21.1119 82.8102 21.1119H72.8262V0.855871H82.4902C84.2609 0.855871 85.6369 1.04787 86.6182 1.43187C87.6209 1.79454 88.3249 2.33854 88.7302 3.06387C89.1356 3.7892 89.3382 4.69587 89.3382 5.78387C89.3382 7.2772 88.9756 8.43987 88.2503 9.27187C87.5462 10.0825 86.2129 10.5732 84.2503 10.7439V10.8399C85.7009 10.9465 86.8422 11.1919 87.6742 11.5759C88.5062 11.9385 89.0929 12.4719 89.4342 13.1759C89.7969 13.8799 89.9782 14.7972 89.9782 15.9279ZM81.0822 4.88787H77.9463V8.85587H81.0822C82.1276 8.85587 82.8849 8.72787 83.3542 8.47187C83.8236 8.19454 84.0583 7.6612 84.0583 6.87187C84.0583 6.10387 83.8236 5.5812 83.3542 5.30387C82.8849 5.02654 82.1276 4.88787 81.0822 4.88787ZM81.7223 13.0479H77.9463V17.1119H81.7223C82.7676 17.1119 83.5249 16.9732 83.9942 16.6959C84.4636 16.3972 84.6982 15.8532 84.6982 15.0639C84.6982 14.2532 84.4636 13.7199 83.9942 13.4639C83.5249 13.1865 82.7676 13.0479 81.7223 13.0479Z"
				fill="#0265DC" />
			<path
				d="M92.2175 10.9679C92.2175 8.38654 92.5055 6.33854 93.0815 4.82387C93.6788 3.3092 94.6922 2.2212 96.1215 1.55987C97.5722 0.898538 99.5882 0.567871 102.169 0.567871C104.111 0.567871 105.721 0.749205 107.001 1.11187C108.281 1.47454 109.295 2.0612 110.041 2.87187C110.788 3.68254 111.311 4.75987 111.609 6.10387C111.929 7.42654 112.09 9.04787 112.09 10.9679C112.09 12.9092 111.929 14.5519 111.609 15.8959C111.311 17.2185 110.788 18.2852 110.041 19.0959C109.295 19.9065 108.281 20.4932 107.001 20.8559C105.721 21.2185 104.111 21.3999 102.169 21.3999C100.228 21.3999 98.6175 21.2185 97.3375 20.8559C96.0575 20.4932 95.0442 19.9065 94.2975 19.0959C93.5508 18.2852 93.0175 17.2185 92.6975 15.8959C92.3775 14.5519 92.2175 12.9092 92.2175 10.9679ZM102.169 16.9199C103.535 16.9199 104.559 16.7492 105.242 16.4079C105.924 16.0665 106.383 15.4692 106.618 14.6159C106.852 13.7412 106.969 12.5252 106.969 10.9679C106.969 9.43187 106.852 8.2372 106.618 7.38387C106.383 6.53054 105.924 5.9332 105.242 5.59187C104.559 5.2292 103.535 5.04787 102.169 5.04787C100.825 5.04787 99.8015 5.2292 99.0975 5.59187C98.4148 5.9332 97.9455 6.53054 97.6895 7.38387C97.4548 8.2372 97.3375 9.43187 97.3375 10.9679C97.3375 12.5252 97.4548 13.7412 97.6895 14.6159C97.9455 15.4692 98.4148 16.0665 99.0975 16.4079C99.8015 16.7492 100.825 16.9199 102.169 16.9199Z"
				fill="#0265DC" />
			<path
				d="M128.351 10.7759L134.271 21.1119H127.871L124.191 13.9439H124.095L120.415 21.1119H114.015L119.935 10.7759V10.6159L114.399 0.855871H120.703L124.095 7.89587H124.191L127.583 0.855871H133.887L128.351 10.6159V10.7759Z"
				fill="#0265DC" />
		</symbol>

		<symbol id="icon-search" viewBox="0 0 24 24">
			<path fill-rule="evenodd" clip-rule="evenodd"
				d="M11 4C7.13401 4 4 7.13401 4 11C4 14.866 7.13401 18 11 18C12.8859 18 14.5977 17.2542 15.8564 16.0414C15.8827 16.0072 15.9115 15.9742 15.9429 15.9429C15.9742 15.9115 16.0072 15.8827 16.0414 15.8564C17.2542 14.5977 18 12.8859 18 11C18 7.13401 14.866 4 11 4ZM18.0319 16.6177C19.2635 15.078 20 13.125 20 11C20 6.02944 15.9706 2 11 2C6.02944 2 2 6.02944 2 11C2 15.9706 6.02944 20 11 20C13.125 20 15.078 19.2635 16.6177 18.0319L20.2929 21.7071C20.6834 22.0976 21.3166 22.0976 21.7071 21.7071C22.0976 21.3166 22.0976 20.6834 21.7071 20.2929L18.0319 16.6177Z"
				fill="#F5F8FB" />
		</symbol>

		<symbol id="icon-discord" viewBox="0 0 24 24">
			<path
				d="M20.2752 6.02667C18.7615 4.74667 16.945 4.10667 15.0275 4L14.7248 4.32C16.4404 4.74667 17.9541 5.6 19.367 6.77333C17.6514 5.81333 15.7339 5.17333 13.7156 4.96C13.1101 4.85333 12.6055 4.85333 12 4.85333C11.3945 4.85333 10.8899 4.85333 10.2844 4.96C8.26606 5.17333 6.34862 5.81333 4.63303 6.77333C6.04587 5.6 7.55963 4.74667 9.27523 4.32L8.97248 4C7.05505 4.10667 5.23853 4.74667 3.72477 6.02667C2.00917 9.44 1.10092 13.28 1 17.2267C2.51376 18.9333 4.63303 20 6.85321 20C6.85321 20 7.55963 19.1467 8.06422 18.4C6.75229 18.08 5.54128 17.3333 4.73395 16.16C5.44037 16.5867 6.14679 17.0133 6.85321 17.3333C7.76147 17.76 8.66972 17.9733 9.57798 18.1867C10.3853 18.2933 11.1927 18.4 12 18.4C12.8073 18.4 13.6147 18.2933 14.422 18.1867C15.3303 17.9733 16.2385 17.76 17.1468 17.3333C17.8532 17.0133 18.5596 16.5867 19.2661 16.16C18.4587 17.3333 17.2477 18.08 15.9358 18.4C16.4404 19.1467 17.1468 20 17.1468 20C19.367 20 21.4862 18.9333 23 17.2267C22.8991 13.28 21.9908 9.44 20.2752 6.02667ZM8.66972 15.3067C7.66055 15.3067 6.75229 14.3467 6.75229 13.1733C6.75229 12 7.66055 11.04 8.66972 11.04C9.6789 11.04 10.5872 12 10.5872 13.1733C10.5872 14.3467 9.6789 15.3067 8.66972 15.3067ZM15.3303 15.3067C14.3211 15.3067 13.4128 14.3467 13.4128 13.1733C13.4128 12 14.3211 11.04 15.3303 11.04C16.3394 11.04 17.2477 12 17.2477 13.1733C17.2477 14.3467 16.3394 15.3067 15.3303 15.3067Z"
				fill="#F5F8FB" />
		</symbol>

		<symbol id="icon-wallet-03" viewBox="0 0 24 24">
			<path fill-rule="evenodd" clip-rule="evenodd"
				d="M5 4C4.44772 4 4 4.44772 4 5C4 5.55228 4.44772 6 5 6L19 6C20.6569 6 22 7.34315 22 9V19C22 20.6569 20.6569 22 19 22H5C3.34315 22 2 20.6569 2 19V5C2 3.34315 3.34315 2 5 2H17C17.5523 2 18 2.44772 18 3C18 3.55228 17.5523 4 17 4H5ZM4 7.82929V19C4 19.5523 4.44772 20 5 20H19C19.5523 20 20 19.5523 20 19V9C20 8.44772 19.5523 8 19 8L5 8C4.64936 8 4.31278 7.93985 4 7.82929ZM15 14C15 13.1716 15.6716 12.5 16.5 12.5C17.3284 12.5 18 13.1716 18 14C18 14.8284 17.3284 15.5 16.5 15.5C15.6716 15.5 15 14.8284 15 14Z"
				fill="#F5F8FB" />
		</symbol>

		<!-- ======<<< CATALOG >>>======= -->

		<symbol id="icon-folder" viewBox="0 0 24 24">
			<path fill-rule="evenodd" clip-rule="evenodd"
				d="M10.09 4.05463C9.96938 4.01302 9.8127 3.99997 9.02229 3.99997H5.2C4.62345 3.99997 4.25117 4.00075 3.96784 4.0239C3.69617 4.04609 3.59546 4.08377 3.54601 4.10896C3.35785 4.20484 3.20487 4.35782 3.109 4.54598C3.0838 4.59542 3.04612 4.69614 3.02393 4.96781C3.00357 5.21695 3.00052 5.53487 3.00007 5.99997H11.382L10.99 5.2161C10.6366 4.50915 10.5548 4.37484 10.4637 4.28555C10.3578 4.18184 10.2301 4.10296 10.09 4.05463ZM13.618 5.99997L12.7789 4.32168C12.7602 4.28429 12.7417 4.24719 12.7234 4.2104C12.4586 3.67916 12.2258 3.21196 11.8631 2.85672C11.5454 2.54557 11.1625 2.30893 10.7421 2.16394C10.2622 1.99839 9.74022 1.99908 9.14666 1.99986C9.10555 1.99992 9.0641 1.99997 9.02229 1.99997L5.16146 1.99997C4.63431 1.99995 4.17955 1.99994 3.80497 2.03054C3.40963 2.06284 3.01641 2.13416 2.63803 2.32695C2.07354 2.61457 1.6146 3.07351 1.32698 3.638C1.13419 4.01638 1.06287 4.4096 1.03057 4.80494C0.999967 5.17952 0.999983 5.63428 1 6.16143L1 16.2413C0.999989 17.0462 0.999978 17.7106 1.0442 18.2518C1.09012 18.8139 1.18868 19.3306 1.43598 19.8159C1.81947 20.5686 2.43139 21.1805 3.18404 21.564C3.66938 21.8113 4.18608 21.9099 4.74818 21.9558C5.28937 22 5.95372 22 6.75868 22H17.2413C18.0463 22 18.7106 22 19.2518 21.9558C19.8139 21.9099 20.3306 21.8113 20.816 21.564C21.5686 21.1805 22.1805 20.5686 22.564 19.8159C22.8113 19.3306 22.9099 18.8139 22.9558 18.2518C23 17.7106 23 17.0463 23 16.2413V11.7586C23 10.9537 23 10.2893 22.9558 9.74815C22.9099 9.18605 22.8113 8.66934 22.564 8.18401C22.1805 7.43136 21.5686 6.81944 20.816 6.43595C20.3306 6.18865 19.8139 6.09009 19.2518 6.04417C18.7106 5.99995 18.0463 5.99996 17.2413 5.99997L13.618 5.99997ZM12.9799 7.99997C12.9938 8.00026 13.0077 8.00026 13.0217 7.99997H17.2C18.0566 7.99997 18.6389 8.00075 19.089 8.03752C19.5274 8.07334 19.7516 8.13827 19.908 8.21796C20.2843 8.40971 20.5903 8.71567 20.782 9.09199C20.8617 9.24839 20.9266 9.47259 20.9625 9.91101C20.9992 10.3611 21 10.9434 21 11.8V16.2C21 17.0566 20.9992 17.6388 20.9625 18.0889C20.9266 18.5273 20.8617 18.7516 20.782 18.908C20.5903 19.2843 20.2843 19.5902 19.908 19.782C19.7516 19.8617 19.5274 19.9266 19.089 19.9624C18.6389 19.9992 18.0566 20 17.2 20H6.8C5.94342 20 5.36113 19.9992 4.91104 19.9624C4.47262 19.9266 4.24842 19.8617 4.09202 19.782C3.7157 19.5902 3.40974 19.2843 3.21799 18.908C3.1383 18.7516 3.07337 18.5273 3.03755 18.0889C3.00078 17.6388 3 17.0566 3 16.2V7.99997H12.9799Z"
				fill="white" />
		</symbol>

		<symbol id="icon-chevron-left" viewBox="0 0 24 24">
			<path fill-rule="evenodd" clip-rule="evenodd"
				d="M15.7071 5.29289C16.0976 5.68342 16.0976 6.31658 15.7071 6.70711L10.4142 12L15.7071 17.2929C16.0976 17.6834 16.0976 18.3166 15.7071 18.7071C15.3166 19.0976 14.6834 19.0976 14.2929 18.7071L8.29289 12.7071C7.90237 12.3166 7.90237 11.6834 8.29289 11.2929L14.2929 5.29289C14.6834 4.90237 15.3166 4.90237 15.7071 5.29289Z"
				fill="#F5F8FB" />
		</symbol>

		<symbol id="icon-chevron-right" viewBox="0 0 24 24">
			<path fill-rule="evenodd" clip-rule="evenodd"
				d="M8.29289 5.29289C8.68342 4.90237 9.31658 4.90237 9.70711 5.29289L15.7071 11.2929C16.0976 11.6834 16.0976 12.3166 15.7071 12.7071L9.70711 18.7071C9.31658 19.0976 8.68342 19.0976 8.29289 18.7071C7.90237 18.3166 7.90237 17.6834 8.29289 17.2929L13.5858 12L8.29289 6.70711C7.90237 6.31658 7.90237 5.68342 8.29289 5.29289Z"
				fill="#F5F8FB" />
		</symbol>

		<symbol id="icon-chevron-right-dark" viewBox="0 0 24 24">
			<path fill-rule="evenodd" clip-rule="evenodd"
				d="M8.29289 5.29289C8.68342 4.90237 9.31658 4.90237 9.70711 5.29289L15.7071 11.2929C16.0976 11.6834 16.0976 12.3166 15.7071 12.7071L9.70711 18.7071C9.31658 19.0976 8.68342 19.0976 8.29289 18.7071C7.90237 18.3166 7.90237 17.6834 8.29289 17.2929L13.5858 12L8.29289 6.70711C7.90237 6.31658 7.90237 5.68342 8.29289 5.29289Z"
				fill="#0D0D15" />
		</symbol>

		<!-- ======<<< OUR BLOG >>>======= -->

		<symbol id="icon-user-02" viewBox="0 0 16 16">
			<path fill-rule="evenodd" clip-rule="evenodd"
				d="M7.99999 2.66659C6.71133 2.66659 5.66666 3.71125 5.66666 4.99992C5.66666 6.28858 6.71133 7.33325 7.99999 7.33325C9.28866 7.33325 10.3333 6.28858 10.3333 4.99992C10.3333 3.71125 9.28866 2.66659 7.99999 2.66659ZM4.33333 4.99992C4.33333 2.97487 5.97495 1.33325 7.99999 1.33325C10.025 1.33325 11.6667 2.97487 11.6667 4.99992C11.6667 7.02496 10.025 8.66659 7.99999 8.66659C5.97495 8.66659 4.33333 7.02496 4.33333 4.99992ZM7.99999 10.6666C6.1073 10.6666 4.42032 11.5794 3.34256 13.0058C3.27662 13.0931 3.22616 13.1599 3.18419 13.2187C3.15233 13.2633 3.13058 13.296 3.11544 13.3209C3.21452 13.3322 3.3557 13.3333 3.61815 13.3333H12.3818C12.6443 13.3333 12.7855 13.3322 12.8845 13.3209C12.8694 13.296 12.8477 13.2633 12.8158 13.2187C12.7738 13.1599 12.7234 13.0931 12.6574 13.0058C11.5797 11.5794 9.89268 10.6666 7.99999 10.6666ZM2.27876 12.202C3.59407 10.4612 5.66591 9.33325 7.99999 9.33325C10.3341 9.33325 12.4059 10.4612 13.7212 12.202C13.7272 12.2099 13.7331 12.2178 13.7391 12.2257C13.8522 12.3752 13.9735 12.5356 14.0602 12.6903C14.165 12.8776 14.2428 13.0942 14.238 13.3576C14.2341 13.5694 14.1699 13.7676 14.092 13.9242C14.0141 14.0807 13.8946 14.2514 13.728 14.3822C13.5058 14.5566 13.2638 14.6183 13.0489 14.6441C12.8603 14.6667 12.6369 14.6666 12.4122 14.6666C12.4021 14.6666 12.392 14.6666 12.3818 14.6666H3.61815C3.60802 14.6666 3.59789 14.6666 3.58777 14.6666C3.3631 14.6666 3.13965 14.6667 2.95109 14.6441C2.73616 14.6183 2.49422 14.5566 2.27201 14.3822C2.10538 14.2514 1.98589 14.0807 1.90798 13.9242C1.83006 13.7676 1.7659 13.5694 1.76202 13.3576C1.7572 13.0942 1.83494 12.8776 1.93983 12.6903C2.02649 12.5356 2.14775 12.3752 2.26084 12.2257C2.26684 12.2178 2.27281 12.2099 2.27876 12.202Z"
				fill="#F5F8FB" />
		</symbol>

		<symbol id="icon-calendar" viewBox="0 0 16 16">
			<path fill-rule="evenodd" clip-rule="evenodd"
				d="M5.33334 0.666748C5.70153 0.666748 6.00001 0.965225 6.00001 1.33341V2.00008H10V1.33341C10 0.965225 10.2985 0.666748 10.6667 0.666748C11.0349 0.666748 11.3333 0.965225 11.3333 1.33341V2.00116C11.6503 2.00334 11.9274 2.00989 12.1679 2.02954C12.5426 2.06016 12.8871 2.12587 13.2107 2.29073C13.7124 2.54639 14.1204 2.95434 14.376 3.45611C14.5409 3.77966 14.6066 4.12413 14.6372 4.49886C14.6667 4.85966 14.6667 5.30256 14.6667 5.8392V11.4943C14.6667 12.0309 14.6667 12.4738 14.6372 12.8346C14.6066 13.2094 14.5409 13.5538 14.376 13.8774C14.1204 14.3792 13.7124 14.7871 13.2107 15.0428C12.8871 15.2076 12.5426 15.2733 12.1679 15.304C11.8071 15.3334 11.3642 15.3334 10.8276 15.3334H5.17246C4.63582 15.3334 4.19292 15.3334 3.83213 15.304C3.4574 15.2733 3.11293 15.2076 2.78937 15.0428C2.2876 14.7871 1.87966 14.3792 1.62399 13.8774C1.45913 13.5538 1.39342 13.2094 1.36281 12.8346C1.33333 12.4738 1.33334 12.0309 1.33334 11.4943V5.83921C1.33334 5.30257 1.33333 4.85966 1.36281 4.49886C1.39342 4.12413 1.45913 3.77966 1.62399 3.45611C1.87966 2.95434 2.2876 2.54639 2.78937 2.29073C3.11293 2.12587 3.4574 2.06016 3.83213 2.02954C4.07267 2.00989 4.3497 2.00334 4.66668 2.00116V1.33341C4.66668 0.965225 4.96515 0.666748 5.33334 0.666748ZM4.66668 3.33459C4.36966 3.33668 4.13643 3.34246 3.9407 3.35845C3.64843 3.38233 3.49896 3.42561 3.39469 3.47874C3.14381 3.60657 2.93983 3.81054 2.812 4.06143C2.75888 4.16569 2.71559 4.31516 2.69171 4.60744C2.6672 4.9075 2.66668 5.29569 2.66668 5.86675V6.00008H13.3333V5.86675C13.3333 5.29569 13.3328 4.9075 13.3083 4.60744C13.2844 4.31516 13.2411 4.16569 13.188 4.06143C13.0602 3.81054 12.8562 3.60657 12.6053 3.47874C12.5011 3.42561 12.3516 3.38233 12.0593 3.35845C11.8636 3.34246 11.6304 3.33668 11.3333 3.33459V4.00008C11.3333 4.36827 11.0349 4.66675 10.6667 4.66675C10.2985 4.66675 10 4.36827 10 4.00008V3.33341H6.00001V4.00008C6.00001 4.36827 5.70153 4.66675 5.33334 4.66675C4.96515 4.66675 4.66668 4.36827 4.66668 4.00008V3.33459ZM13.3333 7.33341H2.66668V11.4667C2.66668 12.0378 2.6672 12.426 2.69171 12.7261C2.71559 13.0183 2.75888 13.1678 2.812 13.2721C2.93983 13.523 3.14381 13.7269 3.39469 13.8548C3.49896 13.9079 3.64843 13.9512 3.9407 13.975C4.24076 13.9996 4.62896 14.0001 5.20001 14.0001H10.8C11.3711 14.0001 11.7593 13.9996 12.0593 13.975C12.3516 13.9512 12.5011 13.9079 12.6053 13.8548C12.8562 13.7269 13.0602 13.523 13.188 13.2721C13.2411 13.1678 13.2844 13.0183 13.3083 12.7261C13.3328 12.426 13.3333 12.0378 13.3333 11.4667V7.33341Z"
				fill="#F5F8FB" />
		</symbol>

		<!-- ======<<< ABOUT US >>>======= -->

		<symbol id="icon-about-01" viewBox="0 0 74 55">
			<path opacity="0.5"
				d="M29.3416 37.7208L29.3416 37.7208L29.3375 37.7293C28.448 39.5931 26.5377 40.68 23.12 40.68C19.7734 40.68 17.8455 39.6031 16.9004 37.7247C15.8784 35.5261 15.32 32.0552 15.32 27.2C15.32 22.2841 15.8802 18.8186 16.8985 16.6791C17.8428 14.7983 19.7711 13.72 23.12 13.72C26.5377 13.72 28.448 14.8069 29.3375 16.6707L29.3415 16.679L29.3456 16.6872C30.4119 18.8198 31 22.2806 31 27.2C31 32.0613 30.4132 35.5289 29.3416 37.7208ZM10.3286 3.59806L10.7872 4.45612L10.3286 3.59807C6.99521 5.37972 4.6053 8.24995 3.14423 12.1274C1.69815 15.9651 1 21.006 1 27.2C1 33.3419 1.69844 38.3557 3.14423 42.1926C4.6053 46.0701 6.99521 48.9403 10.3286 50.7219C13.6184 52.4802 17.9058 53.32 23.12 53.32C28.3855 53.32 32.7004 52.4809 35.9914 50.7219C39.3248 48.9403 41.7147 46.0701 43.1758 42.1926C44.6216 38.3557 45.32 33.3419 45.32 27.2C45.32 21.006 44.6218 15.9651 43.1758 12.1274C41.7147 8.24995 39.3248 5.37972 35.9914 3.59807C32.7004 1.83909 28.3855 1 23.12 1C17.9058 1 13.6184 1.83975 10.3286 3.59806ZM49.2906 22V23H50.2906H50.6906H50.9922L51.2435 22.8332L58.6506 17.9183V51.6V52.6H59.6506H71.8106H72.8139L72.8106 51.5967L72.6506 2.47674L72.6474 1.48H71.6506H59.6506H59.3609L59.1161 1.63485L49.7561 7.55485L49.2906 7.84925V8.4V22Z"
				stroke="#0265DC" stroke-width="2" />
		</symbol>

		<symbol id="icon-about-02" viewBox="0 0 90 55">
			<path opacity="0.5"
				d="M29.3416 37.7208L29.3416 37.7208L29.3375 37.7293C28.448 39.5931 26.5377 40.68 23.12 40.68C19.7734 40.68 17.8455 39.6031 16.9004 37.7247C15.8784 35.5261 15.32 32.0552 15.32 27.2C15.32 22.2841 15.8802 18.8186 16.8985 16.6791C17.8428 14.7983 19.7711 13.72 23.12 13.72C26.5377 13.72 28.448 14.8069 29.3375 16.6707L29.3415 16.679L29.3456 16.6872C30.4119 18.8198 31 22.2806 31 27.2C31 32.0613 30.4132 35.5289 29.3416 37.7208ZM10.3286 3.59806L10.7872 4.45612L10.3286 3.59807C6.99521 5.37972 4.6053 8.24995 3.14423 12.1274C1.69815 15.9651 1 21.006 1 27.2C1 33.3419 1.69844 38.3557 3.14423 42.1926C4.6053 46.0701 6.99521 48.9403 10.3286 50.7219C13.6184 52.4802 17.9058 53.32 23.12 53.32C28.3855 53.32 32.7004 52.4809 35.9914 50.7219C39.3248 48.9403 41.7147 46.0701 43.1758 42.1926C44.6216 38.3557 45.32 33.3419 45.32 27.2C45.32 21.006 44.6218 15.9651 43.1758 12.1274C41.7147 8.24995 39.3248 5.37972 35.9914 3.59807C32.7004 1.83909 28.3855 1 23.12 1C17.9058 1 13.6184 1.83975 10.3286 3.59806ZM49.4506 16.56V17.56H50.4506H51.1706H51.4286L51.6543 17.4352C53.6136 16.3525 55.8984 15.3899 58.5154 14.5524L58.524 14.5497L58.5325 14.5468C61.1059 13.6718 63.6105 13.24 66.0506 13.24C68.6343 13.24 70.481 13.6575 71.7008 14.3803L71.7194 14.3913L71.7384 14.4015C72.8476 14.9957 73.4849 16.0351 73.531 17.7863L73.5311 17.7912C73.5711 19.0714 72.9629 20.2487 71.4013 21.3379C69.7737 22.4564 67.4704 23.6519 64.4626 24.9184C60.3768 26.6387 57.1324 28.3236 54.7584 29.9799C52.3684 31.6473 50.61 33.5251 49.5562 35.6328L49.5512 35.6428L49.5464 35.653C48.5615 37.7385 48.0906 40.2124 48.0906 43.04V52V53H49.0906H87.0106H88.0106V52V41.84V40.84H87.0106H62.236C62.5521 40.2993 63.1432 39.6769 64.1424 38.9804L64.1473 38.977C65.849 37.7758 69.0244 36.2662 73.7662 34.4547C78.7431 32.5613 82.3586 30.2907 84.4437 27.5691C86.5872 24.7876 87.6106 21.1662 87.6106 16.8C87.6106 11.2405 85.7888 7.07997 81.9565 4.6021C78.3277 2.22173 73.5561 1.08 67.7306 1.08C64.088 1.08 60.7002 1.46055 57.5721 2.22886C54.4681 2.99124 51.905 3.9847 49.9185 5.23336L49.4506 5.52743V6.08V16.56Z"
				stroke="#0265DC" stroke-width="2" />
		</symbol>

		<symbol id="icon-about-03" viewBox="0 0 90 55">
			<path opacity="0.5"
				d="M29.3416 37.8008L29.3416 37.8008L29.3375 37.8093C28.448 39.6731 26.5377 40.76 23.12 40.76C19.7734 40.76 17.8455 39.6831 16.9004 37.8047C15.8784 35.6061 15.32 32.1352 15.32 27.28C15.32 22.3641 15.8802 18.8986 16.8985 16.7591C17.8428 14.8783 19.7711 13.8 23.12 13.8C26.5377 13.8 28.448 14.8869 29.3375 16.7507L29.3415 16.759L29.3456 16.7672C30.4119 18.8998 31 22.3606 31 27.28C31 32.1413 30.4132 35.6089 29.3416 37.8008ZM10.3286 3.67807L10.7872 4.53612L10.3286 3.67807C6.99521 5.45972 4.6053 8.32995 3.14423 12.2074C1.69815 16.0451 1 21.086 1 27.28C1 33.4219 1.69844 38.4357 3.14423 42.2726C4.6053 46.1501 6.99521 49.0203 10.3286 50.8019C13.6184 52.5603 17.9058 53.4 23.12 53.4C28.3855 53.4 32.7004 52.5609 35.9914 50.8019C39.3248 49.0203 41.7147 46.1501 43.1758 42.2726C44.6216 38.4357 45.32 33.4219 45.32 27.28C45.32 21.086 44.6218 16.0451 43.1758 12.2074C41.7147 8.32995 39.3248 5.45972 35.9914 3.67807C32.7004 1.9191 28.3855 1.08 23.12 1.08C17.9058 1.08 13.6184 1.91975 10.3286 3.67807ZM52.3874 3.04708L51.6906 3.26878V4V14V14.7808L52.4481 14.9701L52.7681 15.0501L53.0407 15.1183L53.3089 15.0345C54.9597 14.5186 56.8027 14.1023 58.8408 13.7887C60.9262 13.4759 62.9827 13.32 65.0106 13.32C68.7968 13.32 71.2652 13.6201 72.565 14.1308L72.5649 14.1308L72.576 14.135C73.1824 14.365 73.5769 14.6889 73.8301 15.0817C74.0879 15.4817 74.2506 16.0339 74.2506 16.8C74.2506 17.5499 74.1032 18.1177 73.8601 18.5479C73.6222 18.9688 73.2607 19.3154 72.7307 19.5819C72.2085 19.8309 71.3567 20.0531 70.1078 20.2076C68.8694 20.3608 67.3068 20.44 65.4106 20.44H60.0506H59.0506V21.44V31.76V32.76H60.0506H66.4506C68.1007 32.76 69.4605 32.8454 70.5412 33.0088C71.635 33.1741 72.3779 33.4102 72.8386 33.6706L72.8607 33.6831L72.8834 33.6944C73.7288 34.1171 74.2506 34.9249 74.2506 36.48C74.2506 37.3264 74.0742 37.9805 73.7717 38.4879C73.4718 38.9909 73.0107 39.4129 72.3351 39.7398C70.897 40.4357 68.3976 40.84 64.6906 40.84C61.9541 40.84 59.5239 40.682 57.3954 40.3705C55.2653 40.0588 53.1603 39.5652 51.0797 38.889L50.929 38.84H50.7706H50.2906H49.2906V39.84V49.84V50.5608L49.9744 50.7887C52.2748 51.5555 54.8097 52.154 57.5757 52.5879C60.3655 53.0256 63.5711 53.2138 67.1855 53.1599L67.1935 53.1597C74.2484 52.9982 79.5762 51.709 82.9771 49.1151L82.9791 49.1136C86.4743 46.434 88.1706 42.4846 88.1706 37.44C88.1706 34.3493 87.2491 31.6849 85.3719 29.5116C84.1669 28.0763 82.4759 27.0938 80.3672 26.5092C82.3517 25.7527 83.9249 24.6157 85.027 23.0575L85.0271 23.0575L85.0335 23.0482C86.7165 20.6107 87.5306 17.6559 87.5306 14.24C87.5306 11.3324 86.9161 8.83945 85.616 6.82566C84.3366 4.7599 82.2171 3.3121 79.404 2.41033C76.5901 1.45526 72.8423 1 68.2106 1C65.2448 1 62.4593 1.16156 59.8557 1.48659C57.2868 1.76048 54.797 2.2804 52.3874 3.04708Z"
				stroke="#0265DC" stroke-width="2" />
		</symbol>

		<symbol id="icon-about-04" viewBox="0 0 96 55">
			<path opacity="0.5"
				d="M29.3416 37.7208L29.3416 37.7208L29.3375 37.7293C28.448 39.5931 26.5377 40.68 23.12 40.68C19.7734 40.68 17.8455 39.6031 16.9004 37.7247C15.8784 35.5261 15.32 32.0552 15.32 27.2C15.32 22.2841 15.8802 18.8186 16.8985 16.6791C17.8428 14.7983 19.7711 13.72 23.12 13.72C26.5377 13.72 28.448 14.8069 29.3375 16.6707L29.3415 16.679L29.3456 16.6872C30.4119 18.8198 31 22.2806 31 27.2C31 32.0613 30.4132 35.5289 29.3416 37.7208ZM10.3286 3.59806L10.7872 4.45612L10.3286 3.59807C6.99521 5.37972 4.6053 8.24995 3.14423 12.1274C1.69815 15.9651 1 21.006 1 27.2C1 33.3419 1.69844 38.3557 3.14423 42.1926C4.6053 46.0701 6.99521 48.9403 10.3286 50.7219C13.6184 52.4802 17.9058 53.32 23.12 53.32C28.3855 53.32 32.7004 52.4809 35.9914 50.7219C39.3248 48.9403 41.7147 46.0701 43.1758 42.1926C44.6216 38.3557 45.32 33.3419 45.32 27.2C45.32 21.006 44.6218 15.9651 43.1758 12.1274C41.7147 8.24995 39.3248 5.37972 35.9914 3.59807C32.7004 1.83909 28.3855 1 23.12 1C17.9058 1 13.6184 1.83975 10.3286 3.59806ZM47.8353 32.6819L47.6906 32.9207V33.2V43.52V44.52H48.6906H72.5193L72.7311 51.7891L72.7593 52.76H73.7306H85.7306H86.7306V51.76V44.52H93.9706H94.9706V43.52V34.08V33.08H93.9706H86.5706V2.56V1.56H85.5706H67.2506H66.6872L66.3953 2.04189L47.8353 32.6819ZM62.5507 33.08L73.3706 13.6169V33.08H62.5507Z"
				stroke="#0265DC" stroke-width="2" />
		</symbol>

		<symbol id="icon-hover-1" viewBox="0 0 70 91">
			<g clip-path="url(#clip0_14118_172)">
				<g filter="url(#filter0_f_14118_172)">
					<path d="M0 90.8477V0H70" stroke="url(#paint0_linear_14118_172)" stroke-width="3" />
				</g>
				<path d="M0 90.8477V0H70" stroke="url(#paint1_linear_14118_172)" stroke-width="3" />
			</g>
			<defs>
				<filter id="filter0_f_14118_172" x="-11.5" y="-11.5" width="91.5" height="112.348" filterUnits="userSpaceOnUse"
					color-interpolation-filters="sRGB">
					<feFlood flood-opacity="0" result="BackgroundImageFix" />
					<feBlend mode="normal" in="SourceGraphic" in2="BackgroundImageFix" result="shape" />
					<feGaussianBlur stdDeviation="5" result="effect1_foregroundBlur_14118_172" />
				</filter>
				<linearGradient id="paint0_linear_14118_172" x1="5.99622e-07" y1="0.849043" x2="40.1589" y2="34.6193"
					gradientUnits="userSpaceOnUse">
					<stop stop-color="#0265DC" />
					<stop offset="1" stop-color="#0265DC" stop-opacity="0" />
				</linearGradient>
				<linearGradient id="paint1_linear_14118_172" x1="5.99622e-07" y1="0.849043" x2="40.1589" y2="34.6193"
					gradientUnits="userSpaceOnUse">
					<stop stop-color="#0265DC" />
					<stop offset="1" stop-color="#0265DC" stop-opacity="0" />
				</linearGradient>
				<clipPath id="clip0_14118_172">
					<rect width="70" height="90.8477" fill="white" />
				</clipPath>
			</defs>
		</symbol>

		<symbol id="icon-hover-2" viewBox="0 0 80 104">
			<g clip-path="url(#clip0_14118_169)">
				<g filter="url(#filter0_f_14118_169)">
					<path d="M80 0.174014L80 104L1.90735e-06 104" stroke="url(#paint0_linear_14118_169)" stroke-width="3" />
				</g>
				<path d="M80 0.174014L80 104L1.90735e-06 104" stroke="url(#paint1_linear_14118_169)" stroke-width="3" />
			</g>
			<defs>
				<filter id="filter0_f_14118_169" x="-10" y="-9.82593" width="101.5" height="125.326"
					filterUnits="userSpaceOnUse" color-interpolation-filters="sRGB">
					<feFlood flood-opacity="0" result="BackgroundImageFix" />
					<feBlend mode="normal" in="SourceGraphic" in2="BackgroundImageFix" result="shape" />
					<feGaussianBlur stdDeviation="5" result="effect1_foregroundBlur_14118_169" />
				</filter>
				<linearGradient id="paint0_linear_14118_169" x1="80" y1="103.03" x2="34.1042" y2="64.4351"
					gradientUnits="userSpaceOnUse">
					<stop stop-color="#0265DC" />
					<stop offset="1" stop-color="#0265DC" stop-opacity="0" />
				</linearGradient>
				<linearGradient id="paint1_linear_14118_169" x1="80" y1="103.03" x2="34.1042" y2="64.4351"
					gradientUnits="userSpaceOnUse">
					<stop stop-color="#0265DC" />
					<stop offset="1" stop-color="#0265DC" stop-opacity="0" />
				</linearGradient>
				<clipPath id="clip0_14118_169">
					<rect width="80" height="103.826" fill="white" transform="translate(0 0.174072)" />
				</clipPath>
			</defs>
		</symbol>

		<!-- ======<<< SOCIALS >>>======= -->

		<symbol id="icon-twitter" viewBox="0 0 24 24">
			<path
				d="M19.6441 6.17993C20.5012 5.64375 21.1425 4.79948 21.4483 3.80474C20.6429 4.3048 19.7618 4.65705 18.8429 4.84626C17.569 3.43608 15.5505 3.09291 13.9155 4.0085C12.2804 4.92409 11.4335 6.87177 11.848 8.76323C8.54901 8.58991 5.47544 6.95924 3.3921 4.27698C2.30485 6.23938 2.86046 8.748 4.66182 10.0098C4.01043 9.98794 3.37348 9.80338 2.80409 9.47158C2.80409 9.48959 2.80409 9.5076 2.80409 9.52561C2.80447 11.5698 4.18125 13.3306 6.09599 13.7357C5.49179 13.9077 4.85802 13.9331 4.24304 13.8098C4.78153 15.5579 6.32121 16.7555 8.07611 16.7912C6.62265 17.985 4.82769 18.6323 2.98002 18.6292C2.65252 18.6297 2.32528 18.6099 2 18.5701C3.87627 19.8318 6.06002 20.5015 8.29028 20.4991C11.3931 20.5214 14.375 19.2414 16.569 16.9453C18.763 14.6493 19.986 11.5289 19.9644 8.28198C19.9644 8.09589 19.9603 7.9108 19.952 7.72671C20.7556 7.119 21.4491 6.36617 22 5.50359C21.2514 5.85083 20.4573 6.0788 19.6441 6.17993Z"
				fill="#F5F8FB" />
		</symbol>

		<symbol id="icon-facebook" viewBox="0 0 24 24">
			<path
				d="M2.00195 12.0614C2.00312 17.0111 5.58035 21.2255 10.439 22.0012V14.9692H7.90195V12.0614H10.442V9.84786C10.3284 8.79898 10.6845 7.75363 11.4136 6.99534C12.1427 6.23703 13.1693 5.84437 14.215 5.92385C14.9655 5.93604 15.7141 6.0033 16.455 6.12508V8.59922H15.191C14.7558 8.54187 14.3183 8.68647 14.0017 8.99229C13.6851 9.2981 13.5237 9.73203 13.563 10.1718V12.0614H16.334L15.891 14.9702H13.563V22.0012C18.8174 21.1657 22.502 16.3373 21.9475 11.0141C21.3929 5.69079 16.7932 1.73615 11.4808 2.01511C6.16831 2.29407 2.0028 6.70896 2.00195 12.0614Z"
				fill="#F5F8FB" />
		</symbol>

		<symbol id="icon-telegram" viewBox="0 0 24 24">
			<path
				d="M23.5468 2.42273C23.1374 2.11452 22.4944 2.07042 21.8295 2.30739H21.8285C21.1292 2.55649 2.03537 9.82768 1.25808 10.1247C1.11671 10.1684 -0.118008 10.5774 0.00917513 11.4885C0.122712 12.3099 1.11507 12.6501 1.23625 12.6893L6.0905 14.165C6.41255 15.1168 7.59977 18.6283 7.86233 19.3785C8.02608 19.8462 8.293 20.4607 8.7608 20.5871C9.17128 20.7277 9.57957 20.5993 9.84376 20.4151L12.8116 17.9712L17.6025 21.2884L17.7166 21.349C18.0419 21.4769 18.3536 21.5409 18.6511 21.5409C18.8809 21.5409 19.1014 21.5026 19.3121 21.426C20.0299 21.1643 20.317 20.5571 20.347 20.4883L23.9256 3.97399C24.144 3.09199 23.8405 2.64323 23.5468 2.42273ZM10.3716 14.7553L8.73405 18.6322L7.0965 13.786L19.6511 5.54754L10.3716 14.7553Z"
				fill="#F5F8FB" />
		</symbol>

		<symbol id="icon-youtube" viewBox="0 0 24 24">
			<path
				d="M23.2523 5.92188C23.0312 4.75354 21.9776 3.90271 20.7549 3.63708C18.9253 3.26562 15.5391 3 11.8755 3C8.21396 3 4.77359 3.26562 2.94177 3.63708C1.72127 3.90271 0.665529 4.69959 0.444408 5.92188C0.22112 7.25 0 9.10938 0 11.5C0 13.8906 0.22112 15.75 0.498605 17.0781C0.721892 18.2465 1.77547 19.0973 2.99596 19.3629C4.93835 19.7344 8.26816 20 11.9318 20C15.5955 20 18.9253 19.7344 20.8677 19.3629C22.0882 19.0973 23.1417 18.3004 23.365 17.0781C23.5862 15.75 23.8636 13.8367 23.92 11.5C23.8073 9.10938 23.5298 7.25 23.2523 5.92188ZM8.87949 15.2188V7.78125L15.6497 11.5L8.87949 15.2188Z"
				fill="#F5F8FB" />
		</symbol>

		<symbol id="icon-tiktok" viewBox="0 0 24 24">
			<path
				d="M19.0333 2.76929H4.96733C3.75547 2.76929 2.76953 3.75522 2.76953 4.96709V19.033C2.76953 20.2449 3.75547 21.2308 4.96733 21.2308H19.0333C20.2451 21.2308 21.2311 20.2449 21.2311 19.033V4.96709C21.2311 3.75522 20.2451 2.76929 19.0333 2.76929ZM17.2777 10.8234C17.1779 10.8326 17.0768 10.8387 16.9744 10.8387C15.8214 10.8387 14.8082 10.2458 14.2188 9.34951C14.2188 11.7007 14.2188 14.3759 14.2188 14.4207C14.2188 16.4906 12.5405 18.1688 10.4706 18.1688C8.40074 18.1688 6.7225 16.4906 6.7225 14.4207C6.7225 12.3508 8.40074 10.6726 10.4706 10.6726C10.5489 10.6726 10.6254 10.6796 10.7023 10.6845V12.5315C10.6254 12.5223 10.5498 12.5082 10.4706 12.5082C9.41393 12.5082 8.55766 13.3645 8.55766 14.4212C8.55766 15.4779 9.41393 16.3341 10.4706 16.3341C11.5273 16.3341 12.4605 15.5016 12.4605 14.4449C12.4605 14.4031 12.479 5.83214 12.479 5.83214H14.2443C14.4104 7.41061 15.6847 8.65632 17.2777 8.77061V10.8234Z"
				fill="#F5F8FB" />
		</symbol>

		<symbol id="icon-discord" viewBox="0 0 24 24">
			<path
				d="M19.9511 5.77432C18.0474 4.26701 15.0358 4.01151 14.9069 4.00231C14.707 3.98577 14.5165 4.09606 14.4343 4.27804C14.4268 4.28907 14.3614 4.43796 14.2886 4.66957C15.5477 4.87913 17.0946 5.30007 18.4939 6.15482C18.7181 6.29085 18.7872 6.58128 18.6489 6.80186C18.5574 6.94708 18.4023 7.02612 18.2417 7.02612C18.1557 7.02612 18.0679 7.00222 17.9895 6.95443C15.5832 5.48573 12.5791 5.4122 12 5.4122C11.4209 5.4122 8.41491 5.48573 6.01053 6.95443C5.78635 7.0923 5.49117 7.02428 5.35292 6.8037C5.21281 6.58128 5.28193 6.29269 5.50611 6.15482C6.9054 5.30191 8.45228 4.87913 9.71145 4.67141C9.63859 4.43796 9.5732 4.29091 9.5676 4.27804C9.48353 4.09606 9.29484 3.98209 9.09307 4.00231C8.96416 4.01151 5.95262 4.26701 4.02276 5.79454C3.0158 6.71179 1 12.0719 1 16.706C1 16.7887 1.02242 16.8677 1.06352 16.9394C2.45346 19.3438 6.24779 19.9724 7.11277 20C7.11651 20 7.12211 20 7.12772 20C7.28091 20 7.42476 19.9283 7.51444 19.807L8.38876 18.6232C6.02921 18.024 4.82422 17.0056 4.7551 16.9449C4.55707 16.774 4.53838 16.4762 4.71399 16.2814C4.88774 16.0865 5.19039 16.0681 5.38842 16.2391C5.41644 16.2648 7.63587 18.1177 12 18.1177C16.3716 18.1177 18.591 16.2575 18.6135 16.2391C18.8115 16.07 19.1123 16.0865 19.2879 16.2832C19.4616 16.478 19.4429 16.774 19.2449 16.9449C19.1758 17.0056 17.9708 18.024 15.6112 18.6232L16.4856 19.807C16.5752 19.9283 16.7191 20 16.8723 20C16.8779 20 16.8835 20 16.8872 20C17.7522 19.9724 21.5465 19.3438 22.9365 16.9394C22.9776 16.8677 23 16.7887 23 16.706C23 12.0719 20.9842 6.71179 19.9511 5.77432ZM8.8913 14.8237C7.96654 14.8237 7.21739 13.9818 7.21739 12.9414C7.21739 11.901 7.96654 11.0591 8.8913 11.0591C9.81607 11.0591 10.5652 11.901 10.5652 12.9414C10.5652 13.9818 9.81607 14.8237 8.8913 14.8237ZM15.1087 14.8237C14.1839 14.8237 13.4348 13.9818 13.4348 12.9414C13.4348 11.901 14.1839 11.0591 15.1087 11.0591C16.0335 11.0591 16.7826 11.901 16.7826 12.9414C16.7826 13.9818 16.0335 14.8237 15.1087 14.8237Z"
				fill="#F5F8FB" />
		</symbol>

		<symbol id="icon-linkedin" viewBox="0 0 20 20">
			<path
				d="M17.8645 0.769287H2.13251C1.37891 0.769287 0.769531 1.36424 0.769531 2.09982V17.8967C0.769531 18.6323 1.37891 19.2308 2.13251 19.2308H17.8645C18.6181 19.2308 19.2311 18.6323 19.2311 17.9003V2.09982C19.2311 1.36424 18.6181 0.769287 17.8645 0.769287ZM6.2467 16.5013H3.50631V7.68876H6.2467V16.5013ZM4.8765 6.48804C3.9967 6.48804 3.28636 5.7777 3.28636 4.9015C3.28636 4.0253 3.9967 3.31496 4.8765 3.31496C5.75271 3.31496 6.46304 4.0253 6.46304 4.9015C6.46304 5.7741 5.75271 6.48804 4.8765 6.48804ZM16.5015 16.5013H13.7647V12.2176C13.7647 11.1972 13.7467 9.88107 12.3404 9.88107C10.9162 9.88107 10.6998 10.9953 10.6998 12.1455V16.5013H7.96665V7.68876H10.5916V8.89309H10.6277C10.9919 8.20078 11.8861 7.46881 13.2167 7.46881C15.9895 7.46881 16.5015 9.29333 16.5015 11.6659V16.5013Z"
				fill="#F5F8FB" />
		</symbol>

		<symbol id="icon-instagram" viewBox="0 0 24 24">
			<path fill-rule="evenodd" clip-rule="evenodd"
				d="M8.19471 2.82467C9.17904 2.77936 9.49289 2.76929 12.0003 2.76929C14.5077 2.76929 14.8216 2.7802 15.8051 2.82467C16.7886 2.86915 17.4599 3.02607 18.0473 3.25348C18.6624 3.48593 19.2204 3.84929 19.682 4.31922C20.1519 4.77992 20.5144 5.33712 20.746 5.95306C20.9743 6.54048 21.1304 7.21181 21.1757 8.19362C21.221 9.17964 21.2311 9.49348 21.2311 12.0001C21.2311 14.5075 21.2202 14.8213 21.1757 15.8057C21.1312 16.7875 20.9743 17.4588 20.746 18.0462C20.5144 18.6622 20.1513 19.2204 19.682 19.6817C19.2204 20.1517 18.6624 20.5142 18.0473 20.7458C17.4599 20.974 16.7886 21.1301 15.8067 21.1754C14.8216 21.2208 14.5077 21.2308 12.0003 21.2308C9.49289 21.2308 9.17904 21.2199 8.19471 21.1754C7.21289 21.131 6.54156 20.974 5.95415 20.7458C5.33814 20.5142 4.78001 20.151 4.31862 19.6817C3.84901 19.2208 3.4856 18.6629 3.25373 18.0471C3.02631 17.4596 2.87023 16.7883 2.82492 15.8065C2.7796 14.8205 2.76953 14.5066 2.76953 12.0001C2.76953 9.49265 2.78044 9.1788 2.82492 8.1953C2.86939 7.21181 3.02631 6.54048 3.25373 5.95306C3.48594 5.33719 3.84963 4.77934 4.31946 4.31838C4.78019 3.84887 5.33776 3.48546 5.95331 3.25348C6.54072 3.02607 7.21205 2.86999 8.19387 2.82467H8.19471ZM15.7304 4.48621C14.7569 4.44173 14.4649 4.4325 12.0003 4.4325C9.53569 4.4325 9.24366 4.44173 8.27023 4.48621C7.36981 4.52733 6.88142 4.67754 6.55583 4.80425C6.12534 4.97208 5.81736 5.17097 5.49429 5.49404C5.18803 5.79199 4.95234 6.1547 4.8045 6.55558C4.67778 6.88118 4.52757 7.36957 4.48645 8.26999C4.44198 9.24341 4.43275 9.53544 4.43275 12.0001C4.43275 14.4647 4.44198 14.7567 4.48645 15.7301C4.52757 16.6305 4.67778 17.1189 4.8045 17.4445C4.95219 17.8448 5.18799 18.2082 5.49429 18.5061C5.79219 18.8124 6.15555 19.0482 6.55583 19.1959C6.88142 19.3226 7.36981 19.4728 8.27023 19.5139C9.24366 19.5584 9.53485 19.5676 12.0003 19.5676C14.4658 19.5676 14.7569 19.5584 15.7304 19.5139C16.6308 19.4728 17.1192 19.3226 17.4448 19.1959C17.8753 19.028 18.1832 18.8292 18.5063 18.5061C18.8126 18.2082 19.0484 17.8448 19.1961 17.4445C19.3228 17.1189 19.473 16.6305 19.5142 15.7301C19.5586 14.7567 19.5679 14.4647 19.5679 12.0001C19.5679 9.53544 19.5586 9.24341 19.5142 8.26999C19.473 7.36957 19.3228 6.88118 19.1961 6.55558C19.0283 6.12509 18.8294 5.81712 18.5063 5.49404C18.2084 5.18781 17.8456 4.95212 17.4448 4.80425C17.1192 4.67754 16.6308 4.52733 15.7304 4.48621ZM10.8213 14.8457C11.4797 15.1197 12.2129 15.1567 12.8956 14.9503C13.5783 14.7439 14.1682 14.3068 14.5645 13.7138C14.9607 13.1208 15.1388 12.4086 15.0683 11.6989C14.9978 10.9892 14.6831 10.3259 14.1779 9.82243C13.8559 9.5006 13.4665 9.25417 13.0378 9.10088C12.6091 8.94759 12.1517 8.89127 11.6986 8.93596C11.2455 8.98065 10.808 9.12524 10.4175 9.35933C10.027 9.59341 9.69323 9.91117 9.44028 10.2897C9.18732 10.6683 9.02144 11.0982 8.95458 11.5486C8.88772 11.9989 8.92155 12.4585 9.05362 12.8942C9.1857 13.3299 9.41273 13.7309 9.71839 14.0684C10.024 14.4058 10.4007 14.6713 10.8213 14.8457ZM8.64534 8.64509C9.08592 8.20451 9.60896 7.85502 10.1846 7.61658C10.7603 7.37814 11.3772 7.25542 12.0003 7.25542C12.6234 7.25542 13.2404 7.37814 13.816 7.61658C14.3916 7.85502 14.9147 8.20451 15.3553 8.64509C15.7958 9.08567 16.1453 9.60872 16.3838 10.1844C16.6222 10.76 16.7449 11.377 16.7449 12.0001C16.7449 12.6231 16.6222 13.2401 16.3838 13.8158C16.1453 14.3914 15.7958 14.9144 15.3553 15.355C14.4655 16.2448 13.2587 16.7447 12.0003 16.7447C10.7419 16.7447 9.53513 16.2448 8.64534 15.355C7.75554 14.4652 7.25566 13.2584 7.25566 12.0001C7.25566 10.7417 7.75554 9.53488 8.64534 8.64509ZM17.7972 7.96202C17.9064 7.85902 17.9938 7.73517 18.0543 7.5978C18.1147 7.46042 18.147 7.31231 18.1492 7.16224C18.1514 7.01216 18.1234 6.86317 18.067 6.72409C18.0106 6.58501 17.9268 6.45867 17.8207 6.35254C17.7146 6.24641 17.5882 6.16265 17.4491 6.10623C17.3101 6.0498 17.1611 6.02185 17.011 6.02404C16.8609 6.02623 16.7128 6.05851 16.5754 6.11896C16.4381 6.17942 16.3142 6.26682 16.2112 6.376C16.0109 6.58833 15.9013 6.87037 15.9055 7.16224C15.9098 7.4541 16.0276 7.73282 16.234 7.93923C16.4404 8.14563 16.7191 8.26347 17.011 8.26772C17.3029 8.27198 17.5849 8.16231 17.7972 7.96202Z"
				fill="#F5F8FB" />
		</symbol>

		<symbol id="icon-telegram2" viewBox="0 0 24 24">
			<path fill-rule="evenodd" clip-rule="evenodd"
				d="M21.2311 12.0001C21.2311 17.0981 17.0983 21.2308 12.0003 21.2308C6.90229 21.2308 2.76953 17.0981 2.76953 12.0001C2.76953 6.90204 6.90229 2.76929 12.0003 2.76929C17.0983 2.76929 21.2311 6.90204 21.2311 12.0001ZM12.3304 9.58342C11.4326 9.95685 9.63821 10.7298 6.94725 11.9022C6.51028 12.0759 6.28138 12.2459 6.26054 12.4122C6.22532 12.6931 6.57711 12.8037 7.05616 12.9543C7.12132 12.9748 7.18884 12.9961 7.25806 13.0186C7.72936 13.1718 8.36336 13.351 8.69294 13.3581C8.99191 13.3646 9.32559 13.2413 9.69398 12.9883C12.2082 11.2912 13.5061 10.4333 13.5876 10.4148C13.6451 10.4018 13.7247 10.3854 13.7787 10.4334C13.8327 10.4813 13.8274 10.5722 13.8216 10.5965C13.7868 10.7451 12.4059 12.029 11.6912 12.6933C11.4685 12.9004 11.3105 13.0473 11.2782 13.0809C11.2058 13.156 11.132 13.2271 11.0612 13.2955C10.6233 13.7176 10.295 14.0341 11.0793 14.551C11.4563 14.7994 11.7579 15.0048 12.0588 15.2097C12.3875 15.4335 12.7152 15.6567 13.1393 15.9347C13.2474 16.0056 13.3506 16.0791 13.4511 16.1508C13.8335 16.4234 14.1771 16.6684 14.6016 16.6293C14.8483 16.6066 15.1031 16.3747 15.2325 15.683C15.5383 14.0482 16.1394 10.5061 16.2783 9.04653C16.2904 8.91865 16.2751 8.75499 16.2628 8.68314C16.2505 8.6113 16.2248 8.50894 16.1315 8.43316C16.0209 8.34342 15.8501 8.3245 15.7738 8.32584C15.4266 8.33196 14.8939 8.51718 12.3304 9.58342Z"
				fill="#F5F8FB" />
		</symbol>

		<!-- ======<<< FAQs >>>======= -->

		<symbol id="icon-plus" viewBox="0 0 24 24">
			<path fill-rule="evenodd" clip-rule="evenodd"
				d="M12 4C12.5523 4 13 4.44772 13 5V11H19C19.5523 11 20 11.4477 20 12C20 12.5523 19.5523 13 19 13H13V19C13 19.5523 12.5523 20 12 20C11.4477 20 11 19.5523 11 19V13H5C4.44772 13 4 12.5523 4 12C4 11.4477 4.44772 11 5 11H11V5C11 4.44772 11.4477 4 12 4Z"
				fill="#F5F8FB" />
		</symbol>

		<symbol id="icon-minus" viewBox="0 0 24 24">
			<path d="M5 12H19" stroke="#F5F8FB" stroke-width="2" stroke-linecap="round" stroke-linejoin="round" />
		</symbol>

		<!-- ======<<< BASILISKS >>>======= -->

		<symbol id="icon-stars-02" viewBox="0 0 24 24">
			<g clip-path="url(#clip0_4549_6583)">
				<path fill-rule="evenodd" clip-rule="evenodd"
					d="M3.00033 0.909912C3.36852 0.909912 3.66699 1.20839 3.66699 1.57658V2.57658H4.66699C5.03518 2.57658 5.33366 2.87506 5.33366 3.24325C5.33366 3.61144 5.03518 3.90991 4.66699 3.90991H3.66699V4.90991C3.66699 5.2781 3.36852 5.57658 3.00033 5.57658C2.63214 5.57658 2.33366 5.2781 2.33366 4.90991V3.90991H1.33366C0.965469 3.90991 0.666992 3.61144 0.666992 3.24325C0.666992 2.87506 0.965469 2.57658 1.33366 2.57658H2.33366V1.57658C2.33366 1.20839 2.63214 0.909912 3.00033 0.909912ZM8.66699 1.57658C8.94284 1.57658 9.1902 1.74646 9.28922 2.00393L10.4453 5.00983C10.6456 5.53053 10.7085 5.68058 10.7946 5.80164C10.881 5.92311 10.9871 6.02924 11.1086 6.11561C11.2297 6.2017 11.3797 6.26463 11.9004 6.4649L14.9063 7.62101C15.1638 7.72004 15.3337 7.9674 15.3337 8.24325C15.3337 8.51909 15.1638 8.76645 14.9063 8.86548L11.9004 10.0216C11.3797 10.2219 11.2297 10.2848 11.1086 10.3709C10.9871 10.4572 10.881 10.5634 10.7946 10.6849C10.7085 10.8059 10.6456 10.956 10.4453 11.4767L9.28922 14.4826C9.1902 14.74 8.94284 14.9099 8.66699 14.9099C8.39115 14.9099 8.14379 14.74 8.04476 14.4826L6.88864 11.4767C6.68838 10.956 6.62544 10.8059 6.53936 10.6848C6.45299 10.5634 6.34686 10.4572 6.22539 10.3709C6.10432 10.2848 5.95428 10.2219 5.43358 10.0216L2.42767 8.86548C2.17021 8.76645 2.00033 8.51909 2.00033 8.24325C2.00033 7.9674 2.17021 7.72004 2.42767 7.62101L5.43358 6.4649C5.95428 6.26463 6.10432 6.2017 6.22539 6.11561C6.34686 6.02924 6.45299 5.92311 6.53936 5.80164C6.62544 5.68058 6.68837 5.53053 6.88864 5.00983L8.04476 2.00393C8.14378 1.74646 8.39114 1.57658 8.66699 1.57658ZM8.66699 4.10036L8.1331 5.48847C8.12426 5.51146 8.11555 5.53414 8.10695 5.55653C7.94457 5.97937 7.82191 6.29878 7.626 6.5743C7.45325 6.81724 7.24099 7.0295 6.99805 7.20225C6.72253 7.39816 6.40312 7.52082 5.98028 7.68321C5.95789 7.69181 5.9352 7.70052 5.91222 7.70936L4.52411 8.24325L5.91222 8.77713C5.9352 8.78597 5.95789 8.79468 5.98028 8.80328C6.40312 8.96567 6.72253 9.08833 6.99805 9.28424C7.24099 9.45699 7.45325 9.66925 7.626 9.91219C7.8219 10.1877 7.94457 10.5071 8.10695 10.93C8.11555 10.9523 8.12426 10.975 8.1331 10.998L8.66699 12.3861L9.20088 10.998C9.20972 10.975 9.21843 10.9524 9.22703 10.93C9.38941 10.5071 9.51208 10.1877 9.70799 9.91219C9.88073 9.66925 10.093 9.45699 10.3359 9.28424C10.6115 9.08833 10.9309 8.96567 11.3537 8.80328C11.3761 8.79468 11.3988 8.78597 11.4218 8.77713L12.8099 8.24325L11.4218 7.70936C11.3988 7.70052 11.3761 7.6918 11.3537 7.6832C10.9309 7.52082 10.6115 7.39816 10.3359 7.20225C10.093 7.0295 9.88073 6.81724 9.70799 6.5743C9.51208 6.29878 9.38941 5.97937 9.22703 5.55653C9.21843 5.53414 9.20972 5.51146 9.20088 5.48847L8.66699 4.10036ZM3.00033 10.9099C3.36852 10.9099 3.66699 11.2084 3.66699 11.5766V12.5766H4.66699C5.03518 12.5766 5.33366 12.8751 5.33366 13.2432C5.33366 13.6114 5.03518 13.9099 4.66699 13.9099H3.66699V14.9099C3.66699 15.2781 3.36852 15.5766 3.00033 15.5766C2.63214 15.5766 2.33366 15.2781 2.33366 14.9099V13.9099H1.33366C0.965469 13.9099 0.666992 13.6114 0.666992 13.2432C0.666992 12.8751 0.965469 12.5766 1.33366 12.5766H2.33366V11.5766C2.33366 11.2084 2.63214 10.9099 3.00033 10.9099Z"
					fill="#E7F1FD" fill-opacity="0.49" />
			</g>
			<defs>
				<clipPath id="clip0_4549_6583">
					<rect width="16" height="16" fill="white" transform="translate(0 0.243164)" />
				</clipPath>
			</defs>
		</symbol>

	</defs>
</svg>