<svg width="36" height="41" viewBox="0 0 36 41" xmlns="http://www.w3.org/2000/svg">
<g clip-path="url(#clip0_18088_399)">
<path d="M35.6377 22.8618V28.8014C35.6377 28.8698 35.6363 28.9383 35.6323 29.0067C35.631 29.0202 35.631 29.0349 35.6296 29.0484C35.6269 29.0886 35.6243 29.1289 35.6202 29.1705C35.6162 29.2108 35.6122 29.251 35.6068 29.2913C35.6028 29.3302 35.5961 29.3692 35.5907 29.4067C35.5813 29.4645 35.5719 29.5208 35.5598 29.5786C35.5531 29.6148 35.5451 29.6497 35.537 29.6859C35.529 29.7168 35.5209 29.749 35.5128 29.7812C35.5061 29.8108 35.4981 29.839 35.4887 29.8685C35.4524 29.9987 35.4081 30.1275 35.3571 30.2537C35.3464 30.2806 35.3357 30.3088 35.3236 30.3356C35.2927 30.4094 35.2592 30.4819 35.2229 30.5531C35.2055 30.5893 35.1867 30.6242 35.1679 30.6591L35.1665 30.6578L28.4471 26.9182L17.9236 21.0604L25.8377 17.4175L35.4954 22.7839L35.6377 22.8618Z" fill="url(#paint0_linear_18088_399)"/>
<path d="M35.5196 11.7774L33.4713 13.356L31.6579 16.207L14.4163 6.60964L20.9679 2.0083L24.9277 4.29555H24.929L32.1854 8.48481L33.6874 9.35192C34.6122 9.88615 35.2646 10.7667 35.5196 11.7774Z" fill="url(#paint1_linear_18088_399)"/>
<path d="M24.9275 4.29544L0 18.576V12.7317C0 11.3371 0.743624 10.0485 1.95034 9.35182L15.8685 1.31692C17.0752 0.620272 18.5624 0.620272 19.7705 1.31692L24.9275 4.29544Z"/>
<path d="M35.6376 12.7318V14.76L3.43758 33.0406L1.95034 32.1815C0.743624 31.4835 0 30.1963 0 28.8016V26.7775L32.1852 8.48486L33.6872 9.35198C34.894 10.0486 35.6376 11.3372 35.6376 12.7318Z"/>
<path d="M35.6376 22.7007V28.8014C35.6376 28.8698 35.6363 28.9383 35.6323 29.0067C35.6309 29.0201 35.6309 29.0349 35.6296 29.0483C35.6269 29.0886 35.6242 29.1289 35.6202 29.1705C35.6161 29.2108 35.6121 29.251 35.6068 29.2913C35.6027 29.3302 35.596 29.3691 35.5906 29.4067C35.5812 29.4644 35.5719 29.5208 35.5598 29.5785C35.5531 29.6148 35.545 29.6497 35.537 29.6859C35.5289 29.7168 35.5208 29.749 35.5128 29.7812C35.5061 29.8108 35.498 29.8389 35.4886 29.8685C35.4524 29.9987 35.4081 30.1275 35.3571 30.2537C35.3463 30.2805 35.3356 30.3087 35.3235 30.3356C35.2927 30.4094 35.2591 30.4819 35.2229 30.553C35.2054 30.5893 35.1866 30.6242 35.1678 30.6591C35.1463 30.698 35.1249 30.7369 35.1021 30.7745C35.0806 30.8134 35.0564 30.851 35.0336 30.8886C34.9853 30.9624 34.9356 31.0363 34.8833 31.1074C34.8296 31.1799 34.7745 31.2497 34.7182 31.3168C34.6886 31.3517 34.6591 31.3852 34.6296 31.4175C34.6 31.451 34.5692 31.4832 34.5383 31.5154C34.4765 31.5799 34.4121 31.643 34.345 31.702C34.3195 31.7262 34.2927 31.749 34.2658 31.7718C34.2497 31.7852 34.2336 31.7987 34.2175 31.8121C34.1853 31.8403 34.1517 31.8671 34.1168 31.8926C34.0833 31.9195 34.0497 31.945 34.0135 31.9691C33.9463 32.0188 33.8766 32.0658 33.8054 32.1101C33.7665 32.1342 33.7276 32.1584 33.6873 32.1812L19.7705 40.2161C18.5625 40.9128 17.0752 40.9128 15.8685 40.2161L10.7786 37.2779L28.447 26.9181L35.4953 22.7839L35.6376 22.7007Z"/>
<path d="M6.99866 6.4375V35.0952L3.43758 33.0402L1.95034 32.1811C0.743624 31.4831 0 30.1959 0 28.8013V12.7315C0 11.3368 0.743624 10.0482 1.95034 9.35159L6.99866 6.4375Z"/>
</g>
<defs>
<linearGradient id="paint0_linear_18088_399" x1="34.5638" y1="27.2376" x2="20.2685" y2="17.4389" gradientUnits="userSpaceOnUse">
<stop stop-color="#0265DC"/>
<stop offset="1" stop-color="#0265DC" stop-opacity="0"/>
</linearGradient>
<linearGradient id="paint1_linear_18088_399" x1="32.2149" y1="13.6808" x2="19.2619" y2="5.29152" gradientUnits="userSpaceOnUse">
<stop stop-color="#0265DC"/>
<stop offset="1" stop-color="#0265DC" stop-opacity="0"/>
</linearGradient>
<clipPath id="clip0_18088_399">
<rect width="36" height="40" transform="translate(0 0.794434)"/>
</clipPath>
</defs>
</svg>
