<svg width="135" height="22" viewBox="0 0 135 22" fill="none" xmlns="http://www.w3.org/2000/svg">
<path d="M18.0719 16.3224C18.0719 18.0291 17.5386 19.3197 16.4719 20.1944C15.4266 21.0691 13.5706 21.5064 10.9039 21.5064H0.919922V1.2504H10.5839C12.3546 1.2504 13.7306 1.4424 14.7119 1.8264C15.7146 2.18907 16.4186 2.73307 16.8239 3.4584C17.2293 4.18374 17.4319 5.0904 17.4319 6.1784C17.4319 7.67174 17.0693 8.8344 16.3439 9.6664C15.6399 10.4771 14.3066 10.9677 12.3439 11.1384V11.2344C13.7946 11.3411 14.9359 11.5864 15.7679 11.9704C16.5999 12.3331 17.1866 12.8664 17.5279 13.5704C17.8906 14.2744 18.0719 15.1917 18.0719 16.3224ZM9.17592 5.2824H6.03992V9.2504H9.17592C10.2213 9.2504 10.9786 9.1224 11.4479 8.8664C11.9173 8.58907 12.1519 8.05574 12.1519 7.2664C12.1519 6.4984 11.9173 5.97574 11.4479 5.6984C10.9786 5.42107 10.2213 5.2824 9.17592 5.2824ZM9.81592 13.4424H6.03992V17.5064H9.81592C10.8613 17.5064 11.6186 17.3677 12.0879 17.0904C12.5573 16.7917 12.7919 16.2477 12.7919 15.4584C12.7919 14.6477 12.5573 14.1144 12.0879 13.8584C11.6186 13.5811 10.8613 13.4424 9.81592 13.4424Z" fill="#0265DC"/>
<path d="M26.0712 21.5064H20.9512V1.2504H26.0712V21.5064Z" fill="#0265DC"/>
<path d="M43.0399 1.2504H48.1599V21.5064H43.0719L37.3119 12.9304C36.8639 12.2477 36.4906 11.6717 36.1919 11.2024C35.8933 10.7331 35.6159 10.2637 35.3599 9.7944C35.1039 9.32507 34.8159 8.7704 34.4959 8.1304L34.3999 8.2584C34.6986 9.2824 34.8799 10.2424 34.9439 11.1384C35.0079 12.0131 35.0399 12.8664 35.0399 13.6984V21.5064H29.9199V1.2504H35.0079L40.7679 9.8264C41.2159 10.4877 41.5893 11.0637 41.8879 11.5544C42.1866 12.0237 42.4639 12.4931 42.7199 12.9624C42.9759 13.4317 43.2639 13.9864 43.5839 14.6264L43.6799 14.4984C43.4666 13.6024 43.3066 12.7384 43.1999 11.9064C43.0933 11.0531 43.0399 10.2104 43.0399 9.3784V1.2504Z" fill="#0265DC"/>
<path d="M70.5737 21.4104V21.5064H65.1337C64.9843 20.9944 64.803 20.4077 64.5897 19.7464C64.3977 19.0851 64.1843 18.3811 63.9497 17.6344H57.0377C56.611 19.1277 56.2163 20.4184 55.8537 21.5064H50.4137V21.4424L56.9737 1.2504H64.0137L70.5737 21.4104ZM60.4297 4.8984C60.2163 5.9864 59.907 7.30907 59.5017 8.8664C59.0963 10.4237 58.6697 12.0131 58.2217 13.6344H62.7977C62.3283 12.0131 61.891 10.4237 61.4857 8.8664C61.0803 7.30907 60.771 5.9864 60.5577 4.8984H60.4297Z" fill="#0265DC"/>
<path d="M89.9782 16.3224C89.9782 18.0291 89.4448 19.3197 88.3782 20.1944C87.3328 21.0691 85.4768 21.5064 82.8102 21.5064H72.8262V1.2504H82.4902C84.2608 1.2504 85.6368 1.4424 86.6182 1.8264C87.6208 2.18907 88.3248 2.73307 88.7302 3.4584C89.1355 4.18374 89.3382 5.0904 89.3382 6.1784C89.3382 7.67174 88.9755 8.8344 88.2502 9.6664C87.5462 10.4771 86.2128 10.9677 84.2502 11.1384V11.2344C85.7008 11.3411 86.8422 11.5864 87.6742 11.9704C88.5062 12.3331 89.0928 12.8664 89.4342 13.5704C89.7968 14.2744 89.9782 15.1917 89.9782 16.3224ZM81.0822 5.2824H77.9462V9.2504H81.0822C82.1275 9.2504 82.8848 9.1224 83.3542 8.8664C83.8235 8.58907 84.0582 8.05574 84.0582 7.2664C84.0582 6.4984 83.8235 5.97574 83.3542 5.6984C82.8848 5.42107 82.1275 5.2824 81.0822 5.2824ZM81.7222 13.4424H77.9462V17.5064H81.7222C82.7675 17.5064 83.5248 17.3677 83.9942 17.0904C84.4635 16.7917 84.6982 16.2477 84.6982 15.4584C84.6982 14.6477 84.4635 14.1144 83.9942 13.8584C83.5248 13.5811 82.7675 13.4424 81.7222 13.4424Z" fill="#0265DC"/>
<path d="M92.2174 11.3624C92.2174 8.78107 92.5054 6.73307 93.0814 5.2184C93.6788 3.70374 94.6921 2.61574 96.1214 1.9544C97.5721 1.29307 99.5881 0.962402 102.169 0.962402C104.111 0.962402 105.721 1.14374 107.001 1.5064C108.281 1.86907 109.295 2.45573 110.041 3.2664C110.788 4.07707 111.311 5.1544 111.609 6.4984C111.929 7.82107 112.089 9.4424 112.089 11.3624C112.089 13.3037 111.929 14.9464 111.609 16.2904C111.311 17.6131 110.788 18.6797 110.041 19.4904C109.295 20.3011 108.281 20.8877 107.001 21.2504C105.721 21.6131 104.111 21.7944 102.169 21.7944C100.228 21.7944 98.6174 21.6131 97.3374 21.2504C96.0574 20.8877 95.0441 20.3011 94.2974 19.4904C93.5508 18.6797 93.0174 17.6131 92.6974 16.2904C92.3774 14.9464 92.2174 13.3037 92.2174 11.3624ZM102.169 17.3144C103.535 17.3144 104.559 17.1437 105.241 16.8024C105.924 16.4611 106.383 15.8637 106.617 15.0104C106.852 14.1357 106.969 12.9197 106.969 11.3624C106.969 9.8264 106.852 8.63174 106.617 7.7784C106.383 6.92507 105.924 6.32774 105.241 5.9864C104.559 5.62374 103.535 5.4424 102.169 5.4424C100.825 5.4424 99.8014 5.62374 99.0974 5.9864C98.4147 6.32774 97.9454 6.92507 97.6894 7.7784C97.4548 8.63174 97.3374 9.8264 97.3374 11.3624C97.3374 12.9197 97.4548 14.1357 97.6894 15.0104C97.9454 15.8637 98.4147 16.4611 99.0974 16.8024C99.8014 17.1437 100.825 17.3144 102.169 17.3144Z" fill="#0265DC"/>
<path d="M128.351 11.1704L134.271 21.5064H127.871L124.191 14.3384H124.095L120.415 21.5064H114.015L119.935 11.1704V11.0104L114.399 1.2504H120.703L124.095 8.2904H124.191L127.583 1.2504H133.887L128.351 11.0104V11.1704Z" fill="#0265DC"/>
</svg>
