<svg width="16" height="17" viewBox="0 0 16 17" fill="none" xmlns="http://www.w3.org/2000/svg">
<g clip-path="url(#clip0_18088_5491)">
<path fill-rule="evenodd" clip-rule="evenodd" d="M5.33325 0.740723C5.70144 0.740723 5.99992 1.0392 5.99992 1.40739V2.07406H9.99992V1.40739C9.99992 1.0392 10.2984 0.740723 10.6666 0.740723C11.0348 0.740723 11.3333 1.0392 11.3333 1.40739V2.07514C11.6502 2.07732 11.9273 2.08387 12.1678 2.10352C12.5425 2.13414 12.887 2.19984 13.2106 2.36471C13.7123 2.62037 14.1203 3.02832 14.3759 3.53008C14.5408 3.85364 14.6065 4.19811 14.6371 4.57284C14.6666 4.93363 14.6666 5.37653 14.6666 5.91317V11.5683C14.6666 12.1049 14.6666 12.5478 14.6371 12.9086C14.6065 13.2833 14.5408 13.6278 14.3759 13.9514C14.1203 14.4531 13.7123 14.8611 13.2106 15.1167C12.887 15.2816 12.5425 15.3473 12.1678 15.3779C11.807 15.4074 11.3641 15.4074 10.8275 15.4074H5.17237C4.63573 15.4074 4.19283 15.4074 3.83204 15.3779C3.4573 15.3473 3.11283 15.2816 2.78928 15.1167C2.28751 14.8611 1.87956 14.4531 1.6239 13.9514C1.45904 13.6278 1.39333 13.2833 1.36271 12.9086C1.33324 12.5478 1.33324 12.1049 1.33325 11.5683V5.91319C1.33324 5.37654 1.33324 4.93364 1.36271 4.57284C1.39333 4.19811 1.45904 3.85364 1.6239 3.53008C1.87956 3.02832 2.28751 2.62037 2.78928 2.36471C3.11283 2.19984 3.4573 2.13414 3.83204 2.10352C4.07257 2.08387 4.34961 2.07732 4.66659 2.07514V1.40739C4.66659 1.0392 4.96506 0.740723 5.33325 0.740723ZM4.66659 3.40856C4.36957 3.41065 4.13634 3.41643 3.94061 3.43242C3.64833 3.4563 3.49886 3.49959 3.3946 3.55271C3.14372 3.68055 2.93974 3.88452 2.81191 4.1354C2.75878 4.23967 2.7155 4.38914 2.69162 4.68141C2.6671 4.98147 2.66659 5.36967 2.66659 5.94072V6.07406H13.3333V5.94072C13.3333 5.36967 13.3327 4.98147 13.3082 4.68141C13.2843 4.38914 13.2411 4.23967 13.1879 4.1354C13.0601 3.88452 12.8561 3.68055 12.6052 3.55271C12.501 3.49959 12.3515 3.4563 12.0592 3.43242C11.8635 3.41643 11.6303 3.41065 11.3333 3.40856V4.07406C11.3333 4.44225 11.0348 4.74072 10.6666 4.74072C10.2984 4.74072 9.99992 4.44225 9.99992 4.07406V3.40739H5.99992V4.07406C5.99992 4.44225 5.70144 4.74072 5.33325 4.74072C4.96506 4.74072 4.66659 4.44225 4.66659 4.07406V3.40856ZM13.3333 7.40739H2.66659V11.5407C2.66659 12.1118 2.6671 12.5 2.69162 12.8C2.7155 13.0923 2.75878 13.2418 2.81191 13.346C2.93974 13.5969 3.14372 13.8009 3.3946 13.9287C3.49886 13.9819 3.64833 14.0251 3.94061 14.049C4.24067 14.0735 4.62887 14.0741 5.19992 14.0741H10.7999C11.371 14.0741 11.7592 14.0735 12.0592 14.049C12.3515 14.0251 12.501 13.9819 12.6052 13.9287C12.8561 13.8009 13.0601 13.5969 13.1879 13.346C13.2411 13.2418 13.2843 13.0923 13.3082 12.8C13.3327 12.5 13.3333 12.1118 13.3333 11.5407V7.40739Z" fill="#F5F8FB"/>
</g>
<defs>
<clipPath id="clip0_18088_5491">
<rect width="16" height="16" fill="white" transform="translate(0 0.0740967)"/>
</clipPath>
</defs>
</svg>
