<svg width="16" height="17" viewBox="0 0 16 17" fill="none" xmlns="http://www.w3.org/2000/svg">
<path fill-rule="evenodd" clip-rule="evenodd" d="M7.9999 2.7408C6.71124 2.7408 5.66657 3.78547 5.66657 5.07414C5.66657 6.3628 6.71124 7.40747 7.9999 7.40747C9.28857 7.40747 10.3332 6.3628 10.3332 5.07414C10.3332 3.78547 9.28857 2.7408 7.9999 2.7408ZM4.33323 5.07414C4.33323 3.04909 5.97486 1.40747 7.9999 1.40747C10.0249 1.40747 11.6666 3.04909 11.6666 5.07414C11.6666 7.09918 10.0249 8.7408 7.9999 8.7408C5.97486 8.7408 4.33323 7.09918 4.33323 5.07414ZM7.9999 10.7408C6.10721 10.7408 4.42023 11.6537 3.34246 13.08C3.27653 13.1673 3.22607 13.2341 3.1841 13.2929C3.15224 13.3375 3.13049 13.3703 3.11535 13.3951C3.21443 13.4064 3.35561 13.4075 3.61806 13.4075H12.3817C12.6442 13.4075 12.7854 13.4064 12.8845 13.3951C12.8693 13.3703 12.8476 13.3375 12.8157 13.2929C12.7737 13.2341 12.7233 13.1673 12.6573 13.08C11.5796 11.6537 9.89259 10.7408 7.9999 10.7408ZM2.27866 12.2762C3.59397 10.5355 5.66582 9.40747 7.9999 9.40747C10.334 9.40747 12.4058 10.5355 13.7211 12.2762C13.7271 12.2841 13.7331 12.292 13.7391 12.2999C13.8521 12.4495 13.9734 12.6098 14.0601 12.7645C14.165 12.9518 14.2427 13.1684 14.2379 13.4319C14.234 13.6436 14.1698 13.8419 14.0919 13.9984C14.014 14.1549 13.8945 14.3256 13.7279 14.4564C13.5057 14.6308 13.2637 14.6925 13.0488 14.7183C12.8602 14.7409 12.6368 14.7409 12.4121 14.7408C12.402 14.7408 12.3919 14.7408 12.3817 14.7408H3.61806C3.60793 14.7408 3.5978 14.7408 3.58768 14.7408C3.36301 14.7409 3.13956 14.7409 2.951 14.7183C2.73607 14.6925 2.49413 14.6308 2.27192 14.4564C2.10529 14.3256 1.9858 14.1549 1.90788 13.9984C1.82997 13.8419 1.7658 13.6436 1.76193 13.4318C1.75711 13.1684 1.83485 12.9518 1.93974 12.7645C2.0264 12.6098 2.14766 12.4495 2.26075 12.2999C2.26674 12.292 2.27272 12.2841 2.27866 12.2762Z" fill="#F5F8FB"/>
</svg>
