<svg width="90" height="55" viewBox="0 0 90 55" fill="none" xmlns="http://www.w3.org/2000/svg">
<path opacity="0.5" d="M23.1201 1C28.3854 1.00001 32.7003 1.83881 35.9912 3.59766L36.3008 3.76855C39.4729 5.5603 41.7603 8.37081 43.1758 12.127L43.4385 12.8613C44.7066 16.5999 45.3203 21.3935 45.3203 27.2002C45.3203 32.9579 44.7064 37.7243 43.4385 41.459L43.1758 42.1924C41.7147 46.0698 39.3246 48.94 35.9912 50.7217C32.7003 52.4806 28.3855 53.3203 23.1201 53.3203C18.2318 53.3203 14.1578 52.5821 10.957 51.041L10.3291 50.7217C7.20409 49.0514 4.90737 46.4249 3.42871 42.9082L3.14453 42.1924C1.69878 38.3555 1.00001 33.3419 1 27.2002C1 21.0062 1.69846 15.9646 3.14453 12.127L3.42871 11.4121C4.90736 7.89531 7.20401 5.26797 10.3291 3.59766L10.957 3.2793C14.1579 1.73818 18.2318 1 23.1201 1ZM67.7305 1.08008C73.5541 1.08008 78.3247 2.22079 81.9531 4.59961L82.3066 4.83691C85.8998 7.33874 87.6103 11.4125 87.6104 16.7998C87.6104 21.1655 86.5864 24.786 84.4434 27.5674L84.4443 27.5684C82.3593 30.2903 78.7439 32.5615 73.7666 34.4551L73.7656 34.4541C69.0242 36.2655 65.8492 37.7754 64.1475 38.9766L64.1426 38.9805C63.144 39.6764 62.5545 40.2994 62.2383 40.8398H88.0107V53H48.0908V43.04C48.0908 40.2126 48.5612 37.7388 49.5459 35.6533L49.5508 35.6426L49.5566 35.6328C50.6105 33.5252 52.3688 31.6469 54.7588 29.9795C57.1327 28.3233 60.3773 26.6382 64.4629 24.918L65.5586 24.4463C68.0348 23.3545 69.9747 22.317 71.3984 21.3389C72.8641 20.3173 73.4916 19.219 73.5312 18.0303V17.7861C73.4851 16.035 72.8475 14.9956 71.7383 14.4014L71.7197 14.3916L71.7012 14.3799C70.4814 13.6571 68.6343 13.2403 66.0508 13.2402C63.6107 13.2402 61.1056 13.6719 58.5322 14.5469L58.5244 14.5498L58.5156 14.5527C55.8986 15.3902 53.6136 16.3528 51.6543 17.4355L51.4287 17.5596H49.4502V5.52734L49.918 5.2334C51.9045 3.98473 54.4683 2.9909 57.5723 2.22852L58.1621 2.08887C61.125 1.41408 64.3158 1.08009 67.7305 1.08008ZM23.1201 13.7197C19.7665 13.7197 17.8374 14.8017 16.8945 16.6875C15.8788 18.8276 15.3203 22.2907 15.3203 27.2002C15.3203 32.0532 15.8783 35.523 16.8994 37.7217C17.844 39.6019 19.7719 40.6797 23.1201 40.6797C26.5377 40.6797 28.4483 39.5933 29.3379 37.7295L29.3418 37.7207L29.5371 37.2949C30.4845 35.0901 31 31.7576 31 27.2002C31 22.281 30.4119 18.8201 29.3457 16.6875L29.3418 16.6787L29.3379 16.6709C28.4484 14.8071 26.5378 13.7198 23.1201 13.7197Z" stroke="#0265DC" stroke-width="2"/>
</svg>
