<svg width="16" height="16" viewBox="0 0 16 16" xmlns="http://www.w3.org/2000/svg">
  <g clip-path="url(#clip0_10014_15680)">
    <path fill-rule="evenodd" clip-rule="evenodd"
      d="M2.99935 0.666748C3.36754 0.666748 3.66602 0.965225 3.66602 1.33341V2.33341H4.66602C5.0342 2.33341 5.33268 2.63189 5.33268 3.00008C5.33268 3.36827 5.0342 3.66675 4.66602 3.66675H3.66602V4.66675C3.66602 5.03494 3.36754 5.33341 2.99935 5.33341C2.63116 5.33341 2.33268 5.03494 2.33268 4.66675V3.66675H1.33268C0.964492 3.66675 0.666016 3.36827 0.666016 3.00008C0.666016 2.63189 0.964492 2.33341 1.33268 2.33341H2.33268V1.33341C2.33268 0.965225 2.63116 0.666748 2.99935 0.666748ZM8.66602 1.33341C8.94186 1.33341 9.18922 1.5033 9.28825 1.76076L10.4444 4.76667C10.6446 5.28737 10.7076 5.43741 10.7936 5.55848C10.88 5.67995 10.9861 5.78608 11.1076 5.87245C11.2287 5.95853 11.3787 6.02146 11.8994 6.22173L14.9053 7.37785C15.1628 7.47687 15.3327 7.72423 15.3327 8.00008C15.3327 8.27593 15.1628 8.52329 14.9053 8.62231L11.8994 9.77843C11.3787 9.9787 11.2287 10.0416 11.1076 10.1277C10.9861 10.2141 10.88 10.3202 10.7936 10.4417C10.7076 10.5627 10.6446 10.7128 10.4444 11.2335L9.28825 14.2394C9.18922 14.4969 8.94186 14.6667 8.66602 14.6667C8.39017 14.6667 8.14281 14.4969 8.04379 14.2394L6.88767 11.2335C6.6874 10.7128 6.62447 10.5627 6.53838 10.4417C6.45201 10.3202 6.34588 10.2141 6.22441 10.1277C6.10335 10.0416 5.9533 9.9787 5.4326 9.77843L2.4267 8.62231C2.16924 8.52329 1.99935 8.27593 1.99935 8.00008C1.99935 7.72423 2.16924 7.47687 2.4267 7.37785L5.4326 6.22173C5.9533 6.02146 6.10335 5.95853 6.22441 5.87245C6.34588 5.78608 6.45201 5.67995 6.53838 5.55848C6.62447 5.43741 6.6874 5.28737 6.88767 4.76667L8.04378 1.76076C8.14281 1.5033 8.39017 1.33341 8.66602 1.33341ZM8.66602 3.8572L8.13213 5.24531C8.12329 5.26829 8.11458 5.29098 8.10598 5.31337C7.94359 5.73621 7.82093 6.05562 7.62502 6.33113C7.45227 6.57408 7.24001 6.78634 6.99707 6.95908C6.72155 7.15499 6.40214 7.27766 5.9793 7.44004C5.95691 7.44864 5.93423 7.45735 5.91124 7.46619L4.52313 8.00008L5.91124 8.53397C5.93423 8.54281 5.95691 8.55152 5.9793 8.56012C6.40214 8.7225 6.72155 8.84517 6.99707 9.04108C7.24001 9.21382 7.45227 9.42608 7.62502 9.66903C7.82093 9.94454 7.94359 10.264 8.10598 10.6868C8.11458 10.7092 8.12329 10.7319 8.13213 10.7549L8.66602 12.143L9.1999 10.7549C9.20874 10.7319 9.21745 10.7092 9.22605 10.6868C9.38844 10.264 9.5111 9.94455 9.70701 9.66903C9.87976 9.42608 10.092 9.21382 10.335 9.04108C10.6105 8.84517 10.9299 8.7225 11.3527 8.56012C11.3751 8.55152 11.3978 8.54281 11.4208 8.53397L12.8089 8.00008L11.4208 7.46619C11.3978 7.45735 11.3751 7.44864 11.3527 7.44004C10.9299 7.27766 10.6105 7.15499 10.335 6.95908C10.092 6.78634 9.87976 6.57408 9.70701 6.33113C9.5111 6.05562 9.38844 5.73621 9.22605 5.31337C9.21745 5.29098 9.20874 5.26829 9.1999 5.24531L8.66602 3.8572ZM2.99935 10.6667C3.36754 10.6667 3.66602 10.9652 3.66602 11.3334V12.3334H4.66602C5.0342 12.3334 5.33268 12.6319 5.33268 13.0001C5.33268 13.3683 5.0342 13.6667 4.66602 13.6667H3.66602V14.6667C3.66602 15.0349 3.36754 15.3334 2.99935 15.3334C2.63116 15.3334 2.33268 15.0349 2.33268 14.6667V13.6667H1.33268C0.964492 13.6667 0.666016 13.3683 0.666016 13.0001C0.666016 12.6319 0.964492 12.3334 1.33268 12.3334H2.33268V11.3334C2.33268 10.9652 2.63116 10.6667 2.99935 10.6667Z" />
  </g>
  <defs>
    <clipPath id="clip0_10014_15680">
      <rect width="16" height="16" />
    </clipPath>
  </defs>
</svg>
