<svg width="96" height="55" viewBox="0 0 96 55" fill="none" xmlns="http://www.w3.org/2000/svg">
<path opacity="0.5" d="M23.1201 1C28.3854 1.00001 32.7003 1.83881 35.9912 3.59766L36.3008 3.76855C39.4729 5.5603 41.7603 8.37081 43.1758 12.127L43.4385 12.8613C44.7066 16.5999 45.3203 21.3935 45.3203 27.2002C45.3203 32.9579 44.7064 37.7243 43.4385 41.459L43.1758 42.1924C41.7147 46.0698 39.3246 48.94 35.9912 50.7217C32.7003 52.4806 28.3855 53.3203 23.1201 53.3203C18.2318 53.3203 14.1578 52.5821 10.957 51.041L10.3291 50.7217C7.20409 49.0514 4.90737 46.4249 3.42871 42.9082L3.14453 42.1924C1.69878 38.3555 1.00001 33.3419 1 27.2002C1 21.0062 1.69846 15.9646 3.14453 12.127L3.42871 11.4121C4.90736 7.89531 7.20401 5.26797 10.3291 3.59766L10.957 3.2793C14.1579 1.73818 18.2318 1 23.1201 1ZM86.5703 1.55957V33.0801H94.9707V44.5195H86.7305V52.7598H72.7598L72.7314 51.7891L72.5195 44.5195H47.6904V32.9209L47.835 32.6816L66.3955 2.04199L66.6875 1.55957H86.5703ZM23.1201 13.7197C19.7665 13.7197 17.8374 14.8017 16.8945 16.6875C15.8788 18.8276 15.3203 22.2907 15.3203 27.2002C15.3203 32.0532 15.8783 35.523 16.8994 37.7217C17.844 39.6019 19.7719 40.6797 23.1201 40.6797C26.5377 40.6797 28.4483 39.5933 29.3379 37.7295L29.3418 37.7207L29.5371 37.2949C30.4845 35.0901 31 31.7576 31 27.2002C31 22.281 30.4119 18.8201 29.3457 16.6875L29.3418 16.6787L29.3379 16.6709C28.4484 14.8071 26.5378 13.7198 23.1201 13.7197ZM62.5508 33.0801H73.3711V13.6162L62.5508 33.0801Z" stroke="#0265DC" stroke-width="2"/>
</svg>
