<svg width="24" height="25" viewBox="0 0 24 25" fill="none" xmlns="http://www.w3.org/2000/svg">
<path d="M19.9511 6.17422C18.0474 4.66691 15.0358 4.41141 14.9069 4.40222C14.707 4.38567 14.5165 4.49596 14.4343 4.67794C14.4268 4.68897 14.3614 4.83787 14.2886 5.06948C15.5477 5.27903 17.0946 5.69997 18.4939 6.55473C18.7181 6.69075 18.7872 6.98118 18.6489 7.20177C18.5574 7.34698 18.4023 7.42602 18.2417 7.42602C18.1557 7.42602 18.0679 7.40213 17.9895 7.35433C15.5832 5.88563 12.5791 5.8121 12 5.8121C11.4209 5.8121 8.41491 5.88563 6.01053 7.35433C5.78635 7.4922 5.49117 7.42419 5.35292 7.2036C5.21281 6.98118 5.28193 6.69259 5.50611 6.55473C6.9054 5.70181 8.45228 5.27903 9.71145 5.07131C9.63859 4.83787 9.5732 4.69081 9.5676 4.67794C9.48353 4.49596 9.29484 4.382 9.09307 4.40222C8.96416 4.41141 5.95262 4.66691 4.02276 6.19444C3.0158 7.1117 1 12.4718 1 17.1059C1 17.1886 1.02242 17.2676 1.06352 17.3393C2.45346 19.7437 6.24779 20.3723 7.11277 20.3999C7.11651 20.3999 7.12211 20.3999 7.12772 20.3999C7.28091 20.3999 7.42476 20.3282 7.51444 20.2069L8.38876 19.0231C6.02921 18.4239 4.82422 17.4055 4.7551 17.3448C4.55707 17.1739 4.53838 16.8761 4.71399 16.6813C4.88774 16.4864 5.19039 16.468 5.38842 16.639C5.41644 16.6647 7.63587 18.5176 12 18.5176C16.3716 18.5176 18.591 16.6574 18.6135 16.639C18.8115 16.4699 19.1123 16.4864 19.2879 16.6831C19.4616 16.8779 19.4429 17.1739 19.2449 17.3448C19.1758 17.4055 17.9708 18.4239 15.6112 19.0231L16.4856 20.2069C16.5752 20.3282 16.7191 20.3999 16.8723 20.3999C16.8779 20.3999 16.8835 20.3999 16.8872 20.3999C17.7522 20.3723 21.5465 19.7437 22.9365 17.3393C22.9776 17.2676 23 17.1886 23 17.1059C23 12.4718 20.9842 7.1117 19.9511 6.17422ZM8.8913 15.2236C7.96654 15.2236 7.21739 14.3817 7.21739 13.3413C7.21739 12.3009 7.96654 11.459 8.8913 11.459C9.81607 11.459 10.5652 12.3009 10.5652 13.3413C10.5652 14.3817 9.81607 15.2236 8.8913 15.2236ZM15.1087 15.2236C14.1839 15.2236 13.4348 14.3817 13.4348 13.3413C13.4348 12.3009 14.1839 11.459 15.1087 11.459C16.0335 11.459 16.7826 12.3009 16.7826 13.3413C16.7826 14.3817 16.0335 15.2236 15.1087 15.2236Z" fill="#F5F8FB"/>
</svg>
